<?xml version="1.0" encoding="UTF-8"?>
<svg xmlns="http://www.w3.org/2000/svg" xmlns:xlink="http://www.w3.org/1999/xlink" width="38px" height="50px" viewBox="0 0 38 50" version="1.1">
<g id="surface1">
<path style=" stroke:none;fill-rule:nonzero;fill:rgb(0%,0%,0%);fill-opacity:1;" d="M 0.265625 18.996094 C 0.265625 12.867188 0.265625 6.863281 0.265625 0.863281 C 12.929688 0.863281 25.597656 0.863281 38.265625 0.863281 C 38.265625 17.125 38.265625 33.386719 38.265625 49.648438 C 25.597656 49.648438 12.929688 49.648438 0.265625 49.648438 C 0.265625 39.476562 0.265625 29.300781 0.265625 18.996094 M 27.53125 33.058594 C 27.117188 33.320312 26.707031 33.582031 26.09375 33.855469 C 25.664062 34.027344 25.234375 34.195312 24.628906 34.394531 C 24.335938 34.53125 24.039062 34.667969 23.535156 34.832031 C 19.132812 36.15625 14.738281 36.335938 10.289062 34.71875 C 10.503906 35.144531 10.753906 35.453125 11.078125 35.574219 C 13.257812 36.417969 15.449219 37.097656 17.851562 37.203125 C 20 37.296875 22.042969 37.199219 24.226562 36.375 C 24.78125 36.203125 25.332031 36.039062 26.070312 35.851562 C 26.449219 35.601562 26.828125 35.351562 27.386719 35.085938 C 27.675781 34.839844 27.960938 34.597656 28.433594 34.332031 C 28.816406 34.078125 29.203125 33.824219 29.726562 33.464844 C 30.355469 32.863281 30.984375 32.265625 31.765625 31.542969 C 32.710938 29.71875 33.691406 27.910156 34.59375 26.066406 C 35.273438 24.667969 35.285156 23.222656 34.765625 21.667969 C 35.394531 19.710938 35.289062 17.820312 34.296875 15.800781 C 34.027344 15.0625 33.878906 14.25 33.46875 13.601562 C 31.753906 10.894531 29.933594 8.269531 26.292969 7.511719 C 26.292969 7.511719 26.1875 7.511719 26.136719 7.332031 C 24.617188 5.761719 22.566406 5.59375 20.285156 5.238281 C 18.851562 5.289062 17.386719 5.175781 15.988281 5.425781 C 12.535156 6.042969 9.386719 7.371094 6.945312 9.910156 C 6.121094 10.769531 5.5 11.8125 4.613281 12.871094 C 3.261719 14.480469 2.722656 16.316406 2.800781 18.523438 C 1.511719 21.222656 2.136719 23.882812 3.125 26.46875 C 3.660156 27.878906 4.554688 29.160156 5.265625 30.496094 C 5.265625 30.496094 5.269531 30.476562 5.289062 30.574219 C 5.3125 30.644531 5.363281 30.691406 5.546875 30.867188 C 6.566406 32.667969 8.425781 33.394531 10.265625 33.746094 C 12.292969 34.132812 14.441406 34.152344 16.519531 34.03125 C 19.609375 33.847656 22.550781 32.878906 25.234375 31.425781 C 27.699219 30.097656 30.054688 28.550781 31.925781 26.621094 C 31.835938 27.734375 31.746094 28.851562 31.503906 30.058594 C 30.675781 30.875 29.847656 31.691406 28.832031 32.53125 C 28.457031 32.695312 28.078125 32.855469 27.53125 33.058594 M 26.625 42.617188 C 26.515625 43.480469 26.414062 44.34375 26.324219 45.128906 C 27.644531 45.128906 28.828125 45.128906 30.082031 45.128906 C 29.96875 44.15625 29.847656 43.128906 29.671875 41.628906 C 29.050781 42.285156 28.648438 42.710938 28.253906 43.128906 C 27.609375 41.804688 27.429688 41.722656 26.625 42.617188 M 21.152344 42.714844 C 21.058594 42.988281 20.886719 43.257812 20.875 43.53125 C 20.835938 44.402344 21.164062 45.199219 22.117188 45.261719 C 22.722656 45.304688 23.835938 44.949219 23.882812 44.640625 C 24 43.914062 23.832031 42.964844 23.398438 42.371094 C 22.796875 41.550781 21.941406 42.003906 21.152344 42.714844 M 16.933594 44.441406 C 17.332031 44.785156 17.730469 45.128906 18.128906 45.472656 C 18.226562 45.375 18.328125 45.28125 18.425781 45.183594 C 18.425781 44.140625 18.425781 43.097656 18.425781 41.597656 C 17.828125 42.152344 17.488281 42.464844 17.207031 42.722656 C 16.824219 42.488281 16.324219 42.183594 15.703125 41.804688 C 15.351562 44.914062 15.421875 45.183594 16.488281 45.230469 C 16.613281 44.910156 16.738281 44.59375 16.933594 44.441406 M 9.28125 42.960938 C 9.183594 42.644531 9.175781 42.136719 8.96875 42.042969 C 8.125 41.660156 6.769531 42.472656 6.605469 43.378906 C 6.328125 44.914062 7.421875 45.59375 9.441406 45.128906 C 9.597656 44.113281 9.761719 43.101562 8.179688 42.996094 C 8.476562 42.996094 8.777344 42.996094 9.28125 42.960938 M 12.132812 42.140625 C 11.457031 44.167969 11.820312 45.300781 13.195312 45.15625 C 13.195312 44.378906 13.273438 43.574219 13.15625 42.800781 C 13.109375 42.503906 12.605469 42.273438 12.132812 42.140625 M 31.394531 42.117188 C 30.941406 42.238281 30.484375 42.359375 30.027344 42.480469 C 30.039062 42.660156 30.050781 42.839844 30.058594 43.019531 C 30.652344 43.113281 31.242188 43.210938 32.199219 43.367188 C 31.855469 42.777344 31.699219 42.511719 31.394531 42.117188 Z M 31.394531 42.117188 "/>
<path style=" stroke:none;fill-rule:nonzero;fill:rgb(81.960784%,67.058824%,40.784314%);fill-opacity:1;" d="M 31.898438 26.414062 C 30.054688 28.550781 27.699219 30.097656 25.234375 31.425781 C 22.550781 32.878906 19.609375 33.847656 16.519531 34.03125 C 14.441406 34.152344 12.292969 34.132812 10.265625 33.746094 C 8.425781 33.394531 6.566406 32.667969 5.480469 30.738281 C 5.394531 30.539062 5.34375 30.496094 5.269531 30.476562 C 5.269531 30.476562 5.265625 30.496094 5.289062 30.398438 C 5.1875 29.851562 4.96875 29.414062 4.949219 28.964844 C 4.902344 28.089844 4.972656 27.203125 5.078125 26.375 C 7.546875 28.058594 10.253906 28.683594 13.097656 28.410156 C 15.777344 28.152344 18.398438 27.519531 20.816406 26.296875 C 21.703125 25.847656 22.574219 25.363281 23.496094 24.816406 C 24.398438 24.417969 25.253906 24.105469 26.226562 23.8125 C 28.40625 23.796875 30.335938 24.097656 31.820312 25.789062 C 31.859375 26.058594 31.878906 26.234375 31.898438 26.414062 Z M 31.898438 26.414062 "/>
<path style=" stroke:none;fill-rule:nonzero;fill:rgb(1.176471%,47.058824%,75.294118%);fill-opacity:1;" d="M 4.992188 26.324219 C 4.972656 27.203125 4.902344 28.089844 4.949219 28.964844 C 4.96875 29.414062 5.1875 29.851562 5.304688 30.402344 C 4.554688 29.160156 3.660156 27.878906 3.125 26.46875 C 2.136719 23.882812 1.511719 21.222656 2.914062 18.449219 C 3.03125 18.375 3.109375 18.390625 3.152344 18.488281 C 3.640625 20.234375 4.109375 21.871094 6.167969 22.417969 C 6.199219 22.691406 6.222656 22.875 6.1875 23.117188 C 5.746094 24.230469 5.367188 25.277344 4.992188 26.324219 Z M 4.992188 26.324219 "/>
<path style=" stroke:none;fill-rule:nonzero;fill:rgb(0.784314%,47.058824%,75.686275%);fill-opacity:1;" d="M 26.390625 7.550781 C 29.933594 8.269531 31.753906 10.894531 33.46875 13.601562 C 33.878906 14.25 34.027344 15.0625 34.195312 15.871094 C 33.199219 15.277344 32.308594 14.617188 31.320312 13.925781 C 30.15625 13.550781 29.089844 13.207031 27.992188 12.800781 C 27.871094 12.636719 27.777344 12.535156 27.703125 12.332031 C 27.570312 11.128906 27.472656 10.015625 27.21875 8.933594 C 27.105469 8.4375 26.679688 8.007812 26.390625 7.550781 Z M 26.390625 7.550781 "/>
<path style=" stroke:none;fill-rule:nonzero;fill:rgb(80.392157%,67.058824%,41.568627%);fill-opacity:1;" d="M 31.417969 13.957031 C 32.308594 14.617188 33.199219 15.277344 34.175781 15.96875 C 35.289062 17.820312 35.394531 19.710938 34.621094 21.707031 C 34.433594 21.746094 34.382812 21.742188 34.308594 21.65625 C 33.515625 20.042969 32.25 19.0625 30.589844 18.4375 C 30.484375 18.3125 30.410156 18.257812 30.375 18.113281 C 30.75 16.667969 31.082031 15.3125 31.417969 13.957031 Z M 31.417969 13.957031 "/>
<path style=" stroke:none;fill-rule:nonzero;fill:rgb(0.392157%,36.470588%,58.823529%);fill-opacity:1;" d="M 4.78125 12.765625 C 5.5 11.8125 6.121094 10.769531 6.945312 9.910156 C 9.386719 7.371094 12.535156 6.042969 15.988281 5.425781 C 17.386719 5.175781 18.851562 5.289062 20.359375 5.355469 C 20.382812 5.640625 20.335938 5.8125 20.171875 5.976562 C 14.097656 6.335938 9.066406 8.5 5.265625 13.0625 C 5.066406 12.921875 4.925781 12.84375 4.78125 12.765625 Z M 4.78125 12.765625 "/>
<path style=" stroke:none;fill-rule:nonzero;fill:rgb(1.568627%,43.921569%,69.803922%);fill-opacity:1;" d="M 26.34375 7.527344 C 26.679688 8.007812 27.105469 8.4375 27.21875 8.933594 C 27.472656 10.015625 27.570312 11.128906 27.585938 12.332031 C 26.023438 12.410156 24.609375 12.386719 23.207031 12.257812 C 23.855469 10.5625 24.453125 8.964844 23.582031 7.277344 C 24.519531 7.347656 25.351562 7.429688 26.1875 7.511719 C 26.1875 7.511719 26.292969 7.511719 26.34375 7.527344 Z M 26.34375 7.527344 "/>
<path style=" stroke:none;fill-rule:nonzero;fill:rgb(0%,40%,64.313725%);fill-opacity:1;" d="M 24.027344 36.394531 C 22.042969 37.199219 20 37.296875 17.851562 37.203125 C 15.449219 37.097656 13.257812 36.417969 11.078125 35.574219 C 10.753906 35.453125 10.503906 35.144531 10.289062 34.71875 C 14.738281 36.335938 19.132812 36.15625 23.640625 34.921875 C 23.84375 35.46875 23.933594 35.929688 24.027344 36.394531 Z M 24.027344 36.394531 "/>
<path style=" stroke:none;fill-rule:nonzero;fill:rgb(0%,41.176471%,63.921569%);fill-opacity:1;" d="M 34.339844 21.738281 C 34.382812 21.742188 34.433594 21.746094 34.550781 21.769531 C 35.285156 23.222656 35.273438 24.667969 34.59375 26.066406 C 33.691406 27.910156 32.710938 29.71875 31.6875 31.480469 C 31.621094 30.933594 31.636719 30.449219 31.652344 29.964844 C 31.746094 28.851562 31.835938 27.734375 31.914062 26.515625 C 31.878906 26.234375 31.859375 26.058594 31.902344 25.738281 C 32.757812 24.3125 33.546875 23.027344 34.339844 21.738281 Z M 34.339844 21.738281 "/>
<path style=" stroke:none;fill-rule:nonzero;fill:rgb(57.647059%,58.431373%,59.607843%);fill-opacity:1;" d="M 26.636719 42.511719 C 27.429688 41.722656 27.609375 41.804688 28.253906 43.128906 C 28.648438 42.710938 29.050781 42.285156 29.671875 41.628906 C 29.847656 43.128906 29.96875 44.15625 30.082031 45.128906 C 28.828125 45.128906 27.644531 45.128906 26.324219 45.128906 C 26.414062 44.34375 26.515625 43.480469 26.636719 42.511719 Z M 26.636719 42.511719 "/>
<path style=" stroke:none;fill-rule:nonzero;fill:rgb(57.254902%,57.647059%,59.607843%);fill-opacity:1;" d="M 21.207031 42.628906 C 21.941406 42.003906 22.796875 41.550781 23.398438 42.371094 C 23.832031 42.964844 24 43.914062 23.882812 44.640625 C 23.835938 44.949219 22.722656 45.304688 22.117188 45.261719 C 21.164062 45.199219 20.835938 44.402344 20.875 43.53125 C 20.886719 43.257812 21.058594 42.988281 21.207031 42.628906 Z M 21.207031 42.628906 "/>
<path style=" stroke:none;fill-rule:nonzero;fill:rgb(57.254902%,58.039216%,59.215686%);fill-opacity:1;" d="M 16.894531 44.359375 C 16.738281 44.59375 16.613281 44.910156 16.488281 45.230469 C 15.421875 45.183594 15.351562 44.914062 15.703125 41.804688 C 16.324219 42.183594 16.824219 42.488281 17.207031 42.722656 C 17.488281 42.464844 17.828125 42.152344 18.425781 41.597656 C 18.425781 43.097656 18.425781 44.140625 18.425781 45.183594 C 18.328125 45.28125 18.226562 45.375 18.128906 45.472656 C 17.730469 45.128906 17.332031 44.785156 16.894531 44.359375 Z M 16.894531 44.359375 "/>
<path style=" stroke:none;fill-rule:nonzero;fill:rgb(58.039216%,58.431373%,59.607843%);fill-opacity:1;" d="M 9.179688 42.980469 C 8.777344 42.996094 8.476562 42.996094 8.179688 42.996094 C 9.761719 43.101562 9.597656 44.113281 9.441406 45.128906 C 7.421875 45.59375 6.328125 44.914062 6.605469 43.378906 C 6.769531 42.472656 8.125 41.660156 8.96875 42.042969 C 9.175781 42.136719 9.183594 42.644531 9.179688 42.980469 Z M 9.179688 42.980469 "/>
<path style=" stroke:none;fill-rule:nonzero;fill:rgb(81.176471%,67.45098%,41.568627%);fill-opacity:1;" d="M 26.160156 7.421875 C 25.351562 7.429688 24.519531 7.347656 23.492188 7.246094 C 23.011719 7.136719 22.71875 7.046875 22.382812 6.875 C 21.65625 6.523438 20.972656 6.253906 20.285156 5.984375 C 20.335938 5.8125 20.382812 5.640625 20.488281 5.40625 C 22.566406 5.59375 24.617188 5.761719 26.160156 7.421875 Z M 26.160156 7.421875 "/>
<path style=" stroke:none;fill-rule:nonzero;fill:rgb(80.392157%,67.058824%,41.176471%);fill-opacity:1;" d="M 4.695312 12.820312 C 4.925781 12.84375 5.066406 12.921875 5.246094 13.15625 C 5.117188 13.84375 4.953125 14.378906 4.78125 15.003906 C 4.738281 15.347656 4.714844 15.601562 4.621094 15.910156 C 4.070312 16.773438 3.589844 17.585938 3.109375 18.390625 C 3.109375 18.390625 3.03125 18.375 2.988281 18.371094 C 2.722656 16.316406 3.261719 14.480469 4.695312 12.820312 Z M 4.695312 12.820312 "/>
<path style=" stroke:none;fill-rule:nonzero;fill:rgb(0%,25.098039%,43.529412%);fill-opacity:1;" d="M 31.582031 30.011719 C 31.636719 30.449219 31.621094 30.933594 31.605469 31.539062 C 30.984375 32.265625 30.355469 32.863281 29.582031 33.464844 C 29.296875 33.148438 29.160156 32.828125 29.019531 32.511719 C 29.847656 31.691406 30.675781 30.875 31.582031 30.011719 Z M 31.582031 30.011719 "/>
<path style=" stroke:none;fill-rule:nonzero;fill:rgb(56.470588%,56.862745%,57.647059%);fill-opacity:1;" d="M 12.226562 42.078125 C 12.605469 42.273438 13.109375 42.503906 13.15625 42.800781 C 13.273438 43.574219 13.195312 44.378906 13.195312 45.15625 C 11.820312 45.300781 11.457031 44.167969 12.226562 42.078125 Z M 12.226562 42.078125 "/>
<path style=" stroke:none;fill-rule:nonzero;fill:rgb(0%,34.901961%,56.078431%);fill-opacity:1;" d="M 24.800781 34.363281 C 25.234375 34.195312 25.664062 34.027344 26.238281 33.9375 C 26.660156 34.382812 26.933594 34.742188 27.207031 35.101562 C 26.828125 35.351562 26.449219 35.601562 25.902344 35.816406 C 25.425781 35.304688 25.113281 34.832031 24.800781 34.363281 Z M 24.800781 34.363281 "/>
<path style=" stroke:none;fill-rule:nonzero;fill:rgb(0%,30.196078%,50.980392%);fill-opacity:1;" d="M 27.296875 35.09375 C 26.933594 34.742188 26.660156 34.382812 26.339844 33.933594 C 26.707031 33.582031 27.117188 33.320312 27.636719 33.128906 C 27.914062 33.578125 28.082031 33.964844 28.25 34.351562 C 27.960938 34.597656 27.675781 34.839844 27.296875 35.09375 Z M 27.296875 35.09375 "/>
<path style=" stroke:none;fill-rule:nonzero;fill:rgb(0%,37.647059%,60.784314%);fill-opacity:1;" d="M 24.714844 34.378906 C 25.113281 34.832031 25.425781 35.304688 25.8125 35.824219 C 25.332031 36.039062 24.78125 36.203125 24.125 36.382812 C 23.933594 35.929688 23.84375 35.46875 23.746094 34.910156 C 24.039062 34.667969 24.335938 34.53125 24.714844 34.378906 Z M 24.714844 34.378906 "/>
<path style=" stroke:none;fill-rule:nonzero;fill:rgb(0%,27.45098%,47.058824%);fill-opacity:1;" d="M 28.339844 34.34375 C 28.082031 33.964844 27.914062 33.578125 27.722656 33.105469 C 28.078125 32.855469 28.457031 32.695312 28.925781 32.523438 C 29.160156 32.828125 29.296875 33.148438 29.507812 33.519531 C 29.203125 33.824219 28.816406 34.078125 28.339844 34.34375 Z M 28.339844 34.34375 "/>
<path style=" stroke:none;fill-rule:nonzero;fill:rgb(57.647059%,58.039216%,59.215686%);fill-opacity:1;" d="M 31.472656 42.183594 C 31.699219 42.511719 31.855469 42.777344 32.199219 43.367188 C 31.242188 43.210938 30.652344 43.113281 30.058594 43.019531 C 30.050781 42.839844 30.039062 42.660156 30.027344 42.480469 C 30.484375 42.359375 30.941406 42.238281 31.472656 42.183594 Z M 31.472656 42.183594 "/>
<path style=" stroke:none;fill-rule:nonzero;fill:rgb(1.176471%,47.058824%,75.294118%);fill-opacity:1;" d="M 5.277344 30.527344 C 5.34375 30.496094 5.394531 30.539062 5.421875 30.660156 C 5.363281 30.691406 5.3125 30.644531 5.277344 30.527344 Z M 5.277344 30.527344 "/>
<path style=" stroke:none;fill-rule:nonzero;fill:rgb(0%,46.666667%,75.686275%);fill-opacity:1;" d="M 30.335938 18.203125 C 30.410156 18.257812 30.484375 18.3125 30.546875 18.511719 C 29.058594 20.363281 27.585938 22.078125 26.113281 23.789062 C 25.253906 24.105469 24.398438 24.417969 23.398438 24.808594 C 22.332031 25.207031 21.34375 25.402344 20.515625 25.871094 C 18.207031 27.175781 15.761719 26.207031 15.023438 23.515625 C 15.085938 23.328125 15.128906 23.21875 15.261719 23.101562 C 18.878906 22.140625 22.058594 20.632812 24.628906 17.914062 C 25.007812 17.796875 25.304688 17.730469 25.722656 17.683594 C 27.339844 17.871094 28.835938 18.035156 30.335938 18.203125 Z M 30.335938 18.203125 "/>
<path style=" stroke:none;fill-rule:nonzero;fill:rgb(0%,0%,0%);fill-opacity:1;" d="M 15 23.597656 C 15.761719 26.207031 18.207031 27.175781 20.515625 25.871094 C 21.34375 25.402344 22.332031 25.207031 23.347656 24.890625 C 22.574219 25.363281 21.703125 25.847656 20.816406 26.296875 C 18.398438 27.519531 15.777344 28.152344 13.097656 28.410156 C 10.253906 28.683594 7.546875 28.058594 5.078125 26.375 C 5.367188 25.277344 5.746094 24.230469 6.292969 23.132812 C 7.316406 23.339844 8.164062 23.796875 9.019531 23.8125 C 11.007812 23.851562 13.003906 23.683594 15 23.597656 Z M 15 23.597656 "/>
<path style=" stroke:none;fill-rule:nonzero;fill:rgb(1.568627%,36.862745%,58.823529%);fill-opacity:1;" d="M 26.226562 23.8125 C 27.585938 22.078125 29.058594 20.363281 30.570312 18.578125 C 32.25 19.0625 33.515625 20.042969 34.308594 21.65625 C 33.546875 23.027344 32.757812 24.3125 31.882812 25.652344 C 30.335938 24.097656 28.40625 23.796875 26.226562 23.8125 Z M 26.226562 23.8125 "/>
<path style=" stroke:none;fill-rule:nonzero;fill:rgb(81.176471%,66.666667%,40.784314%);fill-opacity:1;" d="M 15.023438 23.515625 C 13.003906 23.683594 11.007812 23.851562 9.019531 23.8125 C 8.164062 23.796875 7.316406 23.339844 6.363281 23.070312 C 6.222656 22.875 6.199219 22.691406 6.238281 22.355469 C 7.277344 21.046875 8.246094 19.898438 9.300781 18.738281 C 9.601562 18.628906 9.816406 18.535156 10.144531 18.460938 C 13.359375 18.5 16.148438 17.511719 18.648438 15.832031 C 19.765625 15.078125 20.6875 14.054688 21.679688 13.152344 C 21.660156 13.152344 21.65625 13.1875 21.726562 13.25 C 21.917969 13.175781 22.042969 13.042969 22.242188 12.875 C 22.613281 12.679688 22.902344 12.515625 23.191406 12.355469 C 24.609375 12.386719 26.023438 12.410156 27.5625 12.4375 C 27.777344 12.535156 27.871094 12.636719 27.972656 12.902344 C 27.855469 13.496094 27.8125 13.972656 27.597656 14.355469 C 26.96875 15.480469 26.273438 16.5625 25.605469 17.660156 C 25.304688 17.730469 25.007812 17.796875 24.515625 17.90625 C 21.835938 18.730469 19.316406 19.441406 16.878906 20.34375 C 15.707031 20.777344 15.089844 21.816406 15.167969 23.113281 C 15.128906 23.21875 15.085938 23.328125 15.023438 23.515625 Z M 15.023438 23.515625 "/>
<path style=" stroke:none;fill-rule:nonzero;fill:rgb(1.960784%,43.921569%,69.411765%);fill-opacity:1;" d="M 9.214844 18.75 C 8.246094 19.898438 7.277344 21.046875 6.242188 22.257812 C 4.109375 21.871094 3.640625 20.234375 3.152344 18.488281 C 3.589844 17.585938 4.070312 16.773438 4.648438 16.003906 C 5.503906 18.070312 7.265625 18.554688 9.214844 18.75 Z M 9.214844 18.75 "/>
<path style=" stroke:none;fill-rule:nonzero;fill:rgb(0%,0%,0%);fill-opacity:1;" d="M 25.722656 17.683594 C 26.273438 16.5625 26.96875 15.480469 27.597656 14.355469 C 27.8125 13.972656 27.855469 13.496094 28 12.960938 C 29.089844 13.207031 30.15625 13.550781 31.320312 13.925781 C 31.082031 15.3125 30.75 16.667969 30.375 18.113281 C 28.835938 18.035156 27.339844 17.871094 25.722656 17.683594 Z M 25.722656 17.683594 "/>
<path style=" stroke:none;fill-rule:nonzero;fill:rgb(0%,0%,0%);fill-opacity:1;" d="M 4.796875 14.910156 C 4.953125 14.378906 5.117188 13.84375 5.292969 13.21875 C 9.066406 8.5 14.097656 6.335938 20.171875 5.976562 C 20.972656 6.253906 21.65625 6.523438 22.265625 6.886719 C 20.050781 7.253906 17.800781 7.207031 15.792969 7.863281 C 12.058594 9.082031 8.597656 10.910156 5.941406 13.878906 C 5.601562 14.253906 5.179688 14.566406 4.796875 14.910156 Z M 4.796875 14.910156 "/>
<path style=" stroke:none;fill-rule:nonzero;fill:rgb(0%,36.078431%,58.823529%);fill-opacity:1;" d="M 4.78125 15.003906 C 5.179688 14.566406 5.601562 14.253906 5.941406 13.878906 C 8.597656 10.910156 12.058594 9.082031 15.792969 7.863281 C 17.800781 7.207031 20.050781 7.253906 22.304688 6.96875 C 22.71875 7.046875 23.011719 7.136719 23.390625 7.257812 C 24.453125 8.964844 23.855469 10.5625 23.207031 12.257812 C 22.902344 12.515625 22.613281 12.679688 22.15625 12.863281 C 21.878906 12.988281 21.765625 13.089844 21.65625 13.1875 C 21.65625 13.1875 21.660156 13.152344 21.566406 13.140625 C 19.054688 13.949219 16.570312 14.621094 14.246094 15.636719 C 12.71875 16.3125 11.425781 17.488281 10.03125 18.445312 C 9.816406 18.535156 9.601562 18.628906 9.300781 18.738281 C 7.265625 18.554688 5.503906 18.070312 4.71875 15.949219 C 4.714844 15.601562 4.738281 15.347656 4.78125 15.003906 Z M 4.78125 15.003906 "/>
<path style=" stroke:none;fill-rule:nonzero;fill:rgb(2.745098%,37.254902%,58.823529%);fill-opacity:1;" d="M 15.261719 23.101562 C 15.089844 21.816406 15.707031 20.777344 16.878906 20.34375 C 19.316406 19.441406 21.835938 18.730469 24.4375 17.953125 C 22.058594 20.632812 18.878906 22.140625 15.261719 23.101562 Z M 15.261719 23.101562 "/>
<path style=" stroke:none;fill-rule:nonzero;fill:rgb(0%,0%,0%);fill-opacity:1;" d="M 10.144531 18.460938 C 11.425781 17.488281 12.71875 16.3125 14.246094 15.636719 C 16.570312 14.621094 19.054688 13.949219 21.585938 13.144531 C 20.6875 14.054688 19.765625 15.078125 18.648438 15.832031 C 16.148438 17.511719 13.359375 18.5 10.144531 18.460938 Z M 10.144531 18.460938 "/>
<path style=" stroke:none;fill-rule:nonzero;fill:rgb(0%,0%,0%);fill-opacity:1;" d="M 21.726562 13.25 C 21.765625 13.089844 21.878906 12.988281 22.082031 12.902344 C 22.042969 13.042969 21.917969 13.175781 21.726562 13.25 Z M 21.726562 13.25 "/>
</g>
</svg>
