<?xml version="1.0" encoding="UTF-8"?>
<svg xmlns="http://www.w3.org/2000/svg" xmlns:xlink="http://www.w3.org/1999/xlink" width="800px" height="293px" viewBox="0 0 798 293" version="1.1">
<defs>
<linearGradient id="linear0" gradientUnits="userSpaceOnUse" x1="426.751" y1="-632.71" x2="416.733" y2="-614.042" gradientTransform="matrix(2.961039,0,0,-2.964009,-1224.244519,-1716.634586)">
<stop offset="0" style="stop-color:rgb(0%,43.921569%,71.372549%);stop-opacity:1;"/>
<stop offset="1" style="stop-color:rgb(11.372549%,17.254902%,36.862745%);stop-opacity:1;"/>
</linearGradient>
<linearGradient id="linear1" gradientUnits="userSpaceOnUse" x1="548.926" y1="-594.572" x2="561.641" y2="-580.948" gradientTransform="matrix(2.961039,0,0,-2.964009,-1224.244519,-1716.634586)">
<stop offset="0" style="stop-color:rgb(0%,43.921569%,71.372549%);stop-opacity:1;"/>
<stop offset="1" style="stop-color:rgb(11.372549%,17.254902%,36.862745%);stop-opacity:1;"/>
</linearGradient>
<linearGradient id="linear2" gradientUnits="userSpaceOnUse" x1="493.453" y1="-617.286" x2="491.937" y2="-604.548" gradientTransform="matrix(2.961039,0,0,-2.964009,-1224.244519,-1716.634586)">
<stop offset="0" style="stop-color:rgb(0%,43.921569%,71.372549%);stop-opacity:1;"/>
<stop offset="1" style="stop-color:rgb(11.372549%,17.254902%,36.862745%);stop-opacity:1;"/>
</linearGradient>
<linearGradient id="linear3" gradientUnits="userSpaceOnUse" x1="632.347" y1="-614.834" x2="631.742" y2="-603.336" gradientTransform="matrix(2.961039,0,0,-2.964009,-1224.244519,-1716.634586)">
<stop offset="0" style="stop-color:rgb(7.058824%,36.470588%,61.960784%);stop-opacity:1;"/>
<stop offset="1" style="stop-color:rgb(11.372549%,17.254902%,36.862745%);stop-opacity:1;"/>
</linearGradient>
<linearGradient id="linear4" gradientUnits="userSpaceOnUse" x1="589.912" y1="-598.261" x2="576.568" y2="-619.489" gradientTransform="matrix(2.961039,0,0,-2.964009,-1224.244519,-1716.634586)">
<stop offset="0" style="stop-color:rgb(7.058824%,36.470588%,61.960784%);stop-opacity:1;"/>
<stop offset="1" style="stop-color:rgb(11.372549%,17.254902%,36.862745%);stop-opacity:1;"/>
</linearGradient>
<linearGradient id="linear5" gradientUnits="userSpaceOnUse" x1="471.821" y1="-632.309" x2="480.919" y2="-650.202" gradientTransform="matrix(2.961039,0,0,-2.964009,-1224.244519,-1716.634586)">
<stop offset="0" style="stop-color:rgb(6.27451%,37.254902%,63.137255%);stop-opacity:1;"/>
<stop offset="1" style="stop-color:rgb(11.372549%,17.254902%,36.862745%);stop-opacity:1;"/>
</linearGradient>
<linearGradient id="linear6" gradientUnits="userSpaceOnUse" x1="437.492" y1="-626.202" x2="448.022" y2="-650.612" gradientTransform="matrix(2.961039,0,0,-2.964009,-1224.244519,-1716.634586)">
<stop offset="0" style="stop-color:rgb(6.27451%,37.254902%,63.137255%);stop-opacity:1;"/>
<stop offset="1" style="stop-color:rgb(11.372549%,17.254902%,36.862745%);stop-opacity:1;"/>
</linearGradient>
<linearGradient id="linear7" gradientUnits="userSpaceOnUse" x1="639.706" y1="2062.77" x2="655.635" y2="2062.77" gradientTransform="matrix(2.961039,0,0,2.964009,-1686.166597,-5947.75749)">
<stop offset="0" style="stop-color:rgb(23.529412%,35.294118%,65.098039%);stop-opacity:1;"/>
<stop offset="0.933" style="stop-color:rgb(16.862745%,45.098039%,72.54902%);stop-opacity:1;"/>
<stop offset="1" style="stop-color:rgb(16.470588%,45.882353%,73.333333%);stop-opacity:1;"/>
</linearGradient>
<linearGradient id="linear8" gradientUnits="userSpaceOnUse" x1="578.628" y1="2056.257" x2="844.371" y2="2056.257" gradientTransform="matrix(2.961039,0,0,2.964009,-1702.307221,-5952.75481)">
<stop offset="0" style="stop-color:rgb(23.529412%,35.294118%,65.098039%);stop-opacity:1;"/>
<stop offset="0.933" style="stop-color:rgb(16.862745%,45.098039%,72.54902%);stop-opacity:1;"/>
<stop offset="1" style="stop-color:rgb(16.470588%,45.882353%,73.333333%);stop-opacity:1;"/>
</linearGradient>
</defs>
<g id="surface1">
<path style=" stroke:none;fill-rule:nonzero;fill:url(#linear0);" d="M 0 108.5625 L 35.53125 168.730469 L 49.746094 155.09375 L 10.957031 97.296875 Z M 0 108.5625 "/>
<path style=" stroke:none;fill-rule:nonzero;fill:rgb(0%,44.313725%,72.54902%);fill-opacity:1;" d="M 528.839844 61.136719 L 527.359375 69.140625 L 544.238281 63.507812 L 542.167969 53.726562 Z M 528.839844 61.136719 "/>
<path style=" stroke:none;fill-rule:nonzero;fill:url(#linear1);" d="M 429.351562 6.894531 L 374.570312 69.730469 L 390.5625 65.285156 L 442.675781 0.078125 Z M 429.351562 6.894531 "/>
<path style=" stroke:none;fill-rule:nonzero;fill:rgb(11.372549%,17.254902%,36.862745%);fill-opacity:1;" d="M 722.789062 92.851562 L 736.113281 85.738281 L 732.265625 119.527344 Z M 722.789062 92.851562 "/>
<path style=" stroke:none;fill-rule:nonzero;fill:rgb(11.372549%,17.254902%,36.862745%);fill-opacity:1;" d="M 638.992188 114.488281 L 651.132812 117.15625 L 666.234375 109.746094 L 652.910156 104.707031 Z M 638.992188 114.488281 "/>
<path style=" stroke:none;fill-rule:nonzero;fill:url(#linear2);" d="M 226.816406 78.921875 L 228.59375 117.75 L 245.46875 111.226562 L 240.4375 71.511719 Z M 226.816406 78.921875 "/>
<path style=" stroke:none;fill-rule:nonzero;fill:url(#linear3);" d="M 652.019531 67.066406 L 638.695312 74.472656 L 638.992188 114.488281 L 652.613281 107.671875 L 656.757812 88.109375 Z M 652.019531 67.066406 "/>
<path style=" stroke:none;fill-rule:nonzero;fill:rgb(19.215686%,13.72549%,43.921569%);fill-opacity:1;" d="M 650.246094 117.15625 L 635.4375 248.757812 L 659.128906 244.015625 L 663.570312 110.042969 Z M 650.246094 117.15625 "/>
<path style=" stroke:none;fill-rule:nonzero;fill:rgb(12.941176%,21.960784%,43.137255%);fill-opacity:1;" d="M 678.964844 254.984375 L 679.558594 272.765625 L 724.863281 287.289062 L 738.484375 280.175781 L 693.769531 245.496094 L 648.761719 241.644531 L 635.4375 248.757812 Z M 678.964844 254.984375 "/>
<path style=" stroke:none;fill-rule:nonzero;fill:rgb(12.941176%,21.960784%,43.137255%);fill-opacity:1;" d="M 510.777344 223.5625 L 521.734375 217.636719 L 529.136719 230.679688 L 539.5 225.046875 L 541.574219 242.238281 L 607.605469 254.09375 L 620.632812 246.683594 L 529.730469 191.257812 L 465.179688 202.222656 L 452.742188 214.375 Z M 510.777344 223.5625 "/>
<path style=" stroke:none;fill-rule:nonzero;fill:url(#linear4);" d="M 489.753906 61.730469 L 476.429688 69.140625 L 452.742188 214.375 L 466.066406 207.261719 L 488.867188 125.75 Z M 489.753906 61.730469 "/>
<path style=" stroke:none;fill-rule:nonzero;fill:rgb(11.372549%,17.254902%,36.862745%);fill-opacity:1;" d="M 384.34375 81.292969 L 373.683594 86.921875 L 374.570312 90.480469 L 399.742188 74.472656 L 388.785156 62.617188 L 374.570312 69.730469 Z M 384.34375 81.292969 "/>
<path style=" stroke:none;fill-rule:nonzero;fill:rgb(12.941176%,21.960784%,43.137255%);fill-opacity:1;" d="M 413.066406 252.90625 L 305.578125 199.554688 L 318.902344 189.183594 L 426.390625 245.496094 Z M 413.066406 252.90625 "/>
<path style=" stroke:none;fill-rule:nonzero;fill:rgb(11.372549%,17.254902%,36.862745%);fill-opacity:1;" d="M 315.648438 54.320312 L 299.359375 85.144531 L 316.535156 80.105469 L 328.972656 46.910156 Z M 315.648438 54.320312 "/>
<path style=" stroke:none;fill-rule:nonzero;fill:url(#linear5);" d="M 167.59375 182.066406 L 153.972656 191.554688 C 153.972656 191.554688 156.933594 206.964844 160.785156 217.636719 C 164.632812 228.308594 173.515625 236.902344 173.515625 236.902344 C 179.4375 242.535156 186.25 246.683594 194.246094 249.054688 C 209.34375 253.5 226.519531 250.535156 241.324219 241.050781 C 245.175781 238.679688 250.503906 234.828125 253.761719 231.566406 C 239.25 240.460938 167.59375 182.066406 167.59375 182.066406 Z M 167.59375 182.066406 "/>
<path style=" stroke:none;fill-rule:nonzero;fill:rgb(11.372549%,17.254902%,36.862745%);fill-opacity:1;" d="M 241.324219 114.785156 L 253.761719 253.203125 L 305.28125 245.792969 L 318.902344 238.679688 L 255.242188 106.484375 L 242.214844 110.933594 L 228.59375 117.75 Z M 241.324219 114.785156 "/>
<path style=" stroke:none;fill-rule:nonzero;fill:url(#linear6);" d="M 48.855469 162.800781 L 106.300781 292.921875 L 160.785156 275.433594 L 174.109375 266.542969 L 60.996094 147.980469 L 46.785156 156.578125 L 35.53125 168.730469 Z M 48.855469 162.800781 "/>
<path style=" stroke:none;fill-rule:nonzero;fill:rgb(11.372549%,17.254902%,36.862745%);fill-opacity:1;" d="M 617.082031 224.15625 L 617.96875 230.679688 C 622.707031 230.085938 627.445312 229.492188 631.886719 228.011719 C 636.917969 226.230469 647.578125 221.488281 651.429688 217.933594 C 649.652344 218.527344 624.777344 225.046875 617.082031 224.15625 "/>
<path style=" stroke:none;fill-rule:nonzero;fill:rgb(11.372549%,17.254902%,36.862745%);fill-opacity:1;" d="M 424.316406 190.960938 L 426.390625 201.335938 C 437.34375 199.554688 446.820312 195.703125 456.296875 190.070312 C 462.21875 186.515625 468.4375 181.476562 470.507812 179.992188 C 469.027344 180.882812 424.316406 190.960938 424.316406 190.960938 Z M 424.316406 190.960938 "/>
<path style=" stroke:none;fill-rule:nonzero;fill:rgb(100%,79.607843%,1.960784%);fill-opacity:1;" d="M 121.25 280.515625 L 117.105469 271.03125 L 62.621094 149.503906 L 61.4375 147.132812 L 59.070312 148.320312 L 57.292969 149.210938 L 47.523438 153.953125 C 46.042969 151.582031 43.671875 147.429688 42.191406 144.761719 L 20.28125 107.714844 L 14.652344 97.933594 L 24.128906 92.003906 C 33.011719 86.371094 43.082031 81.035156 54.332031 76.292969 C 76.242188 67.105469 98.453125 62.066406 118.882812 62.066406 C 125.691406 62.066406 132.207031 62.660156 138.128906 63.550781 C 148.195312 64.734375 157.671875 67.996094 165.371094 73.332031 C 176.917969 79.851562 186.097656 89.929688 191.132812 101.785156 C 195.277344 111.566406 196.164062 123.125 193.5 134.980469 L 192.019531 142.09375 L 197.941406 137.945312 C 201.792969 134.980469 205.9375 132.609375 210.378906 130.832031 C 218.078125 127.570312 226.074219 125.792969 234.066406 125.792969 C 241.765625 125.792969 248.871094 127.277344 255.386719 130.238281 L 259.53125 132.019531 L 259.234375 127.277344 L 257.460938 107.417969 L 257.164062 104.15625 L 254.203125 105.046875 L 245.023438 107.417969 L 243.542969 73.625 L 311.054688 51.988281 L 310.460938 78.371094 L 315.496094 79.554688 L 330.300781 51.398438 L 374.421875 90.523438 L 376.195312 92.300781 L 377.972656 90.523438 C 383.894531 84.890625 391.296875 80.148438 399.292969 76.886719 L 402.550781 75.40625 L 400.179688 72.441406 L 392.1875 62.660156 L 442.820312 4.269531 L 469.46875 43.988281 L 428.902344 65.921875 L 420.019531 70.664062 L 430.382812 70.960938 C 449.628906 71.253906 466.804688 79.554688 478.351562 93.78125 L 482.5 99.117188 L 485.164062 102.378906 L 480.722656 107.121094 L 477.761719 110.378906 L 467.691406 121.347656 L 465.917969 123.421875 L 467.988281 125.199219 L 477.464844 133.796875 L 481.019531 137.058594 L 481.90625 132.3125 L 485.460938 109.789062 L 486.347656 103.859375 L 487.234375 97.933594 L 492.566406 64.4375 L 542.902344 64.4375 L 543.199219 62.066406 L 544.089844 56.4375 L 587.910156 56.4375 L 598.570312 123.421875 L 599.164062 127.867188 L 602.714844 125.199219 C 607.15625 121.941406 611.894531 119.570312 616.929688 117.496094 C 623.738281 114.828125 630.550781 113.640625 637.65625 113.640625 C 645.949219 113.640625 653.941406 115.417969 660.753906 119.273438 C 661.050781 119.273438 661.050781 119.570312 661.640625 119.867188 L 664.898438 121.050781 L 665.195312 117.496094 L 666.082031 110.085938 L 666.378906 107.714844 L 664.011719 107.121094 L 655.125 105.046875 L 654.832031 70.070312 L 722.636719 84.890625 L 727.671875 110.085938 L 733.003906 110.085938 L 738.332031 88.445312 L 794.886719 102.082031 L 736.851562 276.660156 L 695.691406 263.621094 L 695.398438 247.613281 L 695.398438 245.242188 L 693.027344 244.945312 L 651.871094 239.019531 L 654.238281 217.972656 L 654.832031 212.933594 L 650.390625 215.304688 C 648.316406 216.492188 646.242188 217.382812 644.171875 217.972656 C 637.359375 220.640625 630.550781 221.828125 623.738281 221.828125 C 621.667969 221.828125 619.890625 221.828125 617.816406 221.53125 L 614.265625 221.234375 L 614.855469 224.792969 L 617.816406 243.167969 L 557.707031 232.496094 L 554.453125 205.230469 L 553.5625 196.335938 L 549.417969 204.042969 L 542.609375 217.382812 L 529.875 193.964844 L 526.027344 186.851562 L 524.839844 194.855469 L 522.175781 212.933594 L 469.46875 204.636719 L 473.613281 179.738281 L 474.503906 174.105469 L 469.46875 177.070312 C 460.882812 182.109375 450.816406 186.257812 439.265625 188.925781 C 435.121094 189.816406 430.976562 190.707031 426.535156 191 L 424.164062 191.296875 L 424.164062 241.09375 L 320.53125 189.816406 L 316.679688 188.039062 L 316.679688 236.351562 L 270.191406 243.167969 L 268.117188 222.125 L 267.527344 216.492188 L 263.382812 220.34375 C 257.164062 226.273438 250.351562 231.015625 242.949219 234.277344 C 235.25 237.535156 227.257812 239.316406 219.558594 239.316406 C 211.5625 239.316406 204.160156 237.535156 197.351562 234.574219 C 184.914062 228.644531 175.734375 217.675781 171.886719 203.746094 C 170.109375 197.226562 169.515625 190.410156 170.40625 183.296875 L 171.292969 175.886719 L 165.964844 181.21875 C 162.113281 184.777344 157.96875 188.335938 153.527344 191.59375 L 152.046875 192.78125 L 152.636719 194.558594 L 168.332031 254.429688 L 170.996094 265.101562 L 160.632812 268.363281 L 131.320312 277.847656 Z M 134.28125 119.570312 C 132.800781 119.570312 131.320312 119.570312 129.542969 119.867188 L 127.46875 120.160156 L 124.507812 120.753906 L 125.398438 123.71875 L 125.988281 125.496094 L 134.28125 153.0625 L 135.167969 155.730469 L 136.351562 159.582031 L 139.3125 156.914062 L 141.386719 155.136719 C 149.675781 147.726562 152.34375 140.316406 150.566406 130.832031 C 149.382812 125.199219 145.234375 122.53125 142.570312 121.347656 C 140.792969 120.160156 137.539062 119.570312 134.28125 119.570312 Z M 359.910156 120.457031 L 354.582031 125.496094 L 340.664062 138.835938 L 337.703125 141.800781 L 341.554688 143.28125 L 356.359375 148.914062 L 360.800781 150.691406 L 359.910156 145.949219 C 358.726562 139.722656 358.429688 133.5 359.023438 127.570312 Z M 420.316406 105.046875 C 414.691406 105.046875 409.066406 107.417969 405.214844 111.863281 C 399.292969 118.382812 398.109375 128.164062 402.253906 135.871094 L 403.4375 137.945312 L 405.214844 141.207031 L 407.878906 138.242188 L 409.65625 136.464844 L 430.089844 113.34375 L 431.570312 111.566406 L 434.234375 108.601562 L 430.679688 107.121094 L 428.3125 106.230469 C 425.351562 105.636719 422.980469 105.046875 420.316406 105.046875 Z M 420.316406 105.046875 "/>
<path style=" stroke:none;fill-rule:nonzero;fill:rgb(49.019608%,49.803922%,40.784314%);fill-opacity:1;" d="M 451.261719 139.386719 L 450.671875 139.980469 C 450.964844 139.980469 451.261719 139.683594 451.261719 139.386719 Z M 451.261719 139.386719 "/>
<path style=" stroke:none;fill-rule:nonzero;fill:rgb(49.019608%,49.803922%,40.784314%);fill-opacity:1;" d="M 469.027344 123.378906 L 479.097656 112.414062 L 475.542969 115.972656 L 475.542969 115.675781 L 472.582031 118.933594 L 462.515625 129.605469 L 471.988281 138.199219 L 473.765625 127.53125 L 478.503906 131.679688 Z M 469.027344 123.378906 "/>
<path style=" stroke:none;fill-rule:nonzero;fill:rgb(49.019608%,49.803922%,40.784314%);fill-opacity:1;" d="M 469.027344 123.378906 L 478.503906 131.679688 L 482.058594 109.152344 L 479.097656 112.414062 Z M 469.027344 123.378906 "/>
<path style=" stroke:none;fill-rule:nonzero;fill:rgb(78.039216%,62.745098%,3.137255%);fill-opacity:1;" d="M 398.851562 150.351562 C 399.742188 151.242188 398.851562 150.648438 399.742188 151.242188 L 405.957031 146.796875 C 405.070312 146.203125 404.183594 145.3125 403.292969 144.722656 C 394.410156 136.421875 396.777344 118.046875 402.40625 107.96875 C 387.007812 120.417969 387.894531 139.386719 398.851562 150.351562 "/>
<path style=" stroke:none;fill-rule:nonzero;fill:rgb(78.039216%,62.745098%,3.137255%);fill-opacity:1;" d="M 473.765625 160.726562 C 463.402344 169.324219 451.855469 174.65625 436.457031 178.511719 C 433.199219 179.402344 429.648438 179.992188 426.6875 179.992188 C 402.109375 182.363281 381.679688 171.101562 373.980469 153.019531 C 373.089844 150.945312 372.203125 148.574219 371.609375 146.203125 C 368.058594 130.789062 371.019531 117.15625 378.71875 106.191406 C 379.605469 105.003906 380.199219 104.113281 381.085938 103.226562 C 380.789062 103.523438 380.199219 103.816406 379.902344 104.113281 C 376.941406 106.78125 374.273438 109.449219 372.203125 112.710938 C 364.503906 123.378906 361.542969 137.3125 365.097656 152.722656 C 365.6875 155.09375 366.28125 157.46875 367.464844 159.542969 C 375.164062 177.917969 395.890625 189.183594 420.171875 186.808594 C 423.429688 186.515625 426.6875 185.921875 430.238281 185.03125 C 445.636719 181.179688 457.480469 175.84375 467.546875 167.25 C 469.917969 165.171875 472.582031 162.800781 474.949219 160.429688 L 474.65625 160.132812 C 474.0625 160.429688 473.765625 160.429688 473.765625 160.726562 "/>
<path style=" stroke:none;fill-rule:nonzero;fill:rgb(78.039216%,62.745098%,3.137255%);fill-opacity:1;" d="M 301.136719 114.191406 L 328.378906 75.660156 L 327.195312 74.769531 L 300.839844 111.820312 Z M 301.136719 114.191406 "/>
<path style=" stroke:none;fill-rule:nonzero;fill:rgb(78.039216%,62.745098%,3.137255%);fill-opacity:1;" d="M 482.058594 109.152344 L 478.503906 131.679688 L 473.765625 127.53125 L 471.988281 138.199219 L 462.515625 129.605469 L 472.582031 118.933594 L 475.542969 115.675781 L 475.542969 115.972656 L 479.097656 112.414062 Z M 482.058594 109.152344 "/>
<path style=" stroke:none;fill-rule:nonzero;fill:rgb(78.039216%,62.745098%,3.137255%);fill-opacity:1;" d="M 448.300781 45.722656 L 457.777344 41.574219 L 440.304688 19.046875 L 434.679688 27.347656 Z M 448.300781 45.722656 "/>
<path style=" stroke:none;fill-rule:nonzero;fill:rgb(78.039216%,62.745098%,3.137255%);fill-opacity:1;" d="M 182.992188 101.445312 C 138.578125 47.503906 58.925781 76.550781 30.5 101.742188 L 31.683594 103.816406 C 38.199219 99.964844 45.304688 96.703125 52.410156 93.445312 C 80.835938 81.292969 108.078125 77.734375 129.695312 81.589844 C 137.390625 82.476562 145.386719 84.847656 152.492188 89.589844 C 162.265625 95.222656 169.667969 102.929688 174.109375 113.007812 C 181.808594 130.789062 174.996094 154.503906 156.933594 174.066406 C 179.734375 153.019531 195.429688 132.867188 182.992188 101.445312 Z M 182.992188 101.445312 "/>
<path style=" stroke:none;fill-rule:nonzero;fill:rgb(78.039216%,62.745098%,3.137255%);fill-opacity:1;" d="M 273.304688 164.285156 C 273.007812 163.394531 273.007812 162.210938 272.710938 161.320312 C 270.34375 152.429688 265.011719 145.3125 257.90625 140.570312 C 246.65625 132.867188 230.664062 131.382812 214.972656 137.90625 C 206.679688 141.460938 199.574219 147.09375 193.652344 153.613281 C 198.09375 149.761719 203.128906 146.796875 208.457031 144.425781 C 224.152344 137.609375 240.140625 139.386719 251.390625 147.09375 C 258.5 151.835938 263.828125 158.949219 266.199219 167.839844 C 266.492188 168.730469 266.789062 169.914062 266.789062 170.804688 C 267.382812 174.363281 267.679688 177.621094 267.679688 181.179688 C 267.382812 191.554688 263.53125 201.925781 257.3125 210.820312 C 256.425781 212.300781 255.242188 213.488281 254.058594 214.96875 C 257.609375 211.707031 260.867188 208.449219 263.53125 204.59375 C 270.046875 195.703125 273.601562 185.328125 274.191406 174.953125 C 274.191406 171.398438 273.894531 167.839844 273.304688 164.285156 "/>
<path style=" stroke:none;fill-rule:nonzero;fill:rgb(78.039216%,62.745098%,3.137255%);fill-opacity:1;" d="M 229.777344 151.242188 C 229.777344 151.242188 236.289062 144.722656 235.996094 144.722656 C 228 144.425781 224.445312 152.132812 224.152344 152.722656 C 225.925781 151.835938 227.703125 151.539062 229.777344 151.242188 "/>
<path style=" stroke:none;fill-rule:nonzero;fill:rgb(78.039216%,62.745098%,3.137255%);fill-opacity:1;" d="M 244.878906 160.429688 C 245.175781 161.617188 245.46875 162.503906 245.46875 163.691406 C 245.46875 165.46875 245.175781 166.953125 244.285156 168.433594 C 245.46875 167.839844 254.945312 163.097656 251.390625 153.613281 C 251.6875 154.207031 244.582031 160.429688 244.878906 160.429688 "/>
<path style=" stroke:none;fill-rule:nonzero;fill:rgb(78.039216%,62.745098%,3.137255%);fill-opacity:1;" d="M 208.160156 166.0625 C 208.160156 162.210938 214.972656 152.429688 217.042969 149.167969 C 206.382812 155.984375 201.648438 165.171875 201.648438 172.285156 C 201.648438 184.734375 212.601562 194.8125 225.632812 194.8125 C 231.847656 194.8125 243.101562 191.554688 250.503906 179.695312 C 246.65625 182.363281 236.882812 188.292969 231.554688 188.292969 C 218.523438 188.292969 208.160156 178.511719 208.160156 166.0625 "/>
<path style=" stroke:none;fill-rule:nonzero;fill:rgb(78.039216%,62.745098%,3.137255%);fill-opacity:1;" d="M 299.65625 177.324219 L 299.953125 227.417969 L 307.949219 228.011719 L 306.171875 170.804688 Z M 299.65625 177.324219 "/>
<path style=" stroke:none;fill-rule:nonzero;fill:rgb(78.039216%,62.745098%,3.137255%);fill-opacity:1;" d="M 254.058594 81.589844 L 254.058594 86.035156 L 291.957031 74.769531 L 294.625 123.085938 L 301.136719 114.191406 L 299.65625 65.878906 Z M 254.058594 81.589844 "/>
<path style=" stroke:none;fill-rule:nonzero;fill:rgb(78.039216%,62.745098%,3.137255%);fill-opacity:1;" d="M 368.058594 98.78125 L 332.820312 66.175781 L 328.378906 75.660156 L 359.765625 105.003906 Z M 368.058594 98.78125 "/>
<path style=" stroke:none;fill-rule:nonzero;fill:rgb(78.039216%,62.745098%,3.137255%);fill-opacity:1;" d="M 362.726562 159.542969 L 320.976562 145.609375 L 315.054688 152.132812 L 356.507812 168.730469 C 361.246094 177.621094 368.351562 185.328125 377.238281 190.664062 C 385.824219 196 395.890625 199.257812 406.253906 200.148438 L 406.253906 220.601562 L 412.769531 223.859375 L 414.839844 193.035156 Z M 362.726562 159.542969 "/>
<path style=" stroke:none;fill-rule:nonzero;fill:rgb(78.039216%,62.745098%,3.137255%);fill-opacity:1;" d="M 429.648438 153.910156 C 440.011719 151.539062 445.636719 146.203125 450.964844 140.277344 C 447.117188 143.535156 428.167969 147.6875 424.910156 148.574219 L 418.691406 155.390625 C 421.355469 155.390625 426.09375 154.800781 429.648438 153.910156 "/>
<path style=" stroke:none;fill-rule:nonzero;fill:rgb(78.039216%,62.745098%,3.137255%);fill-opacity:1;" d="M 410.992188 82.773438 C 392.042969 85.144531 382.269531 101.152344 380.789062 102.929688 C 387.894531 97 396.484375 92.554688 406.253906 90.480469 C 429.648438 84.847656 450.078125 91.960938 462.808594 107.671875 L 470.804688 101.152344 C 458.074219 85.738281 434.382812 77.140625 410.992188 82.773438 "/>
<path style=" stroke:none;fill-rule:nonzero;fill:rgb(78.039216%,62.745098%,3.137255%);fill-opacity:1;" d="M 474.359375 160.132812 C 476.726562 158.355469 480.578125 156.28125 482.945312 153.910156 L 457.777344 131.382812 C 455.703125 133.753906 454.222656 137.609375 451.855469 139.386719 Z M 474.359375 160.132812 "/>
<path style=" stroke:none;fill-rule:nonzero;fill:rgb(78.039216%,62.745098%,3.137255%);fill-opacity:1;" d="M 603.753906 220.601562 C 577.402344 198.667969 578.882812 152.132812 591.910156 137.3125 L 580.363281 64.101562 L 554.898438 67.359375 L 553.714844 73.882812 L 572.960938 73.882812 L 583.324219 140.277344 C 570.296875 155.09375 564.078125 174.953125 568.222656 193.332031 C 571.480469 207.558594 580.363281 218.820312 592.800781 225.34375 C 593.984375 225.933594 595.464844 226.527344 596.648438 227.121094 L 596.945312 228.011719 L 604.644531 229.195312 C 604.347656 229.492188 605.238281 221.191406 603.753906 220.601562 Z M 603.753906 220.601562 "/>
<path style=" stroke:none;fill-rule:nonzero;fill:rgb(78.039216%,62.745098%,3.137255%);fill-opacity:1;" d="M 502.191406 74.769531 L 501.007812 81.292969 L 530.027344 81.292969 L 538.613281 128.417969 L 545.128906 121.898438 L 538.316406 72.101562 Z M 502.191406 74.769531 "/>
<path style=" stroke:none;fill-rule:nonzero;fill:rgb(78.039216%,62.745098%,3.137255%);fill-opacity:1;" d="M 551.9375 166.0625 L 542.460938 190.367188 L 544.832031 196.886719 L 558.15625 159.839844 Z M 551.9375 166.0625 "/>
<path style=" stroke:none;fill-rule:nonzero;fill:rgb(78.039216%,62.745098%,3.137255%);fill-opacity:1;" d="M 524.105469 150.945312 L 517.589844 157.46875 L 510.484375 201.335938 L 517.292969 203.707031 Z M 524.105469 150.945312 "/>
<path style=" stroke:none;fill-rule:nonzero;fill:rgb(78.039216%,62.745098%,3.137255%);fill-opacity:1;" d="M 654.6875 136.71875 C 658.535156 139.386719 661.792969 142.941406 664.160156 147.09375 C 666.234375 150.351562 667.417969 153.613281 668.601562 157.761719 C 671.859375 171.101562 668.011719 185.328125 659.71875 196.589844 C 658.832031 197.777344 657.941406 198.964844 657.054688 199.851562 C 660.3125 196.886719 701.765625 166.359375 661.496094 126.34375 C 617.082031 111.820312 600.203125 140.570312 598.722656 142.648438 C 603.460938 138.792969 608.789062 135.238281 614.710938 133.160156 C 629.515625 127.234375 644.320312 129.308594 654.6875 136.71875 "/>
<path style=" stroke:none;fill-rule:nonzero;fill:rgb(78.039216%,62.745098%,3.137255%);fill-opacity:1;" d="M 632.476562 139.683594 C 632.476562 139.980469 638.992188 133.160156 638.992188 133.160156 C 630.996094 133.457031 627.148438 137.3125 627.742188 139.089844 C 627.148438 139.683594 626.851562 140.570312 626.554688 141.164062 C 628.035156 140.277344 631.292969 139.683594 632.476562 139.683594 "/>
<path style=" stroke:none;fill-rule:nonzero;fill:rgb(78.039216%,62.745098%,3.137255%);fill-opacity:1;" d="M 647.28125 149.761719 C 647.578125 150.945312 647.578125 151.835938 647.578125 153.019531 C 647.578125 154.503906 646.988281 155.984375 646.394531 157.171875 C 647.578125 156.578125 657.054688 153.613281 653.5 142.941406 C 653.796875 143.535156 646.988281 149.761719 647.28125 149.761719 "/>
<path style=" stroke:none;fill-rule:nonzero;fill:rgb(78.039216%,62.745098%,3.137255%);fill-opacity:1;" d="M 626.257812 183.253906 C 635.144531 183.550781 645.210938 178.214844 652.316406 168.433594 C 634.253906 172.285156 615.007812 141.757812 616.785156 138.792969 C 609.972656 143.832031 603.753906 153.316406 603.460938 160.132812 C 602.867188 172.582031 613.230469 182.660156 626.257812 183.253906 "/>
<path style=" stroke:none;fill-rule:nonzero;fill:rgb(78.039216%,62.745098%,3.137255%);fill-opacity:1;" d="M 726.046875 262.394531 L 730.191406 265.058594 L 782.304688 108.5625 L 743.222656 99.667969 L 742.925781 108.855469 L 774.3125 115.675781 Z M 726.046875 262.394531 "/>
<path style=" stroke:none;fill-rule:nonzero;fill:rgb(78.039216%,62.745098%,3.137255%);fill-opacity:1;" d="M 664.160156 82.773438 L 664.457031 91.664062 L 705.910156 99.964844 L 721.902344 175.84375 L 728.414062 169.324219 L 713.019531 92.554688 Z M 664.160156 82.773438 "/>
<path style=" stroke:none;fill-rule:nonzero;fill:rgb(78.039216%,62.745098%,3.137255%);fill-opacity:1;" d="M 696.140625 169.324219 L 684.59375 233.9375 L 691.105469 236.011719 L 702.65625 162.800781 Z M 696.140625 169.324219 "/>
<path style=" stroke:none;fill-rule:nonzero;fill:rgb(78.039216%,62.745098%,3.137255%);fill-opacity:1;" d="M 158.121094 257.648438 L 138.871094 187.105469 L 131.765625 192.144531 L 149.828125 259.429688 Z M 158.121094 257.648438 "/>
<path style=" stroke:none;fill-rule:nonzero;fill:rgb(78.039216%,62.745098%,3.137255%);fill-opacity:1;" d="M 153.085938 151.835938 C 148.644531 156.578125 138.578125 165.765625 132.949219 169.324219 L 129.398438 158.355469 L 121.996094 134.050781 L 117.257812 117.75 L 112.519531 123.675781 L 117.257812 139.980469 L 124.660156 163.988281 L 128.214844 174.953125 C 136.207031 170.507812 147.460938 161.023438 153.085938 151.835938 "/>
<path style=" stroke:none;fill-rule:nonzero;fill:rgb(49.019608%,49.803922%,40.784314%);fill-opacity:1;" d="M 427.871094 110.042969 C 421.652344 107.671875 413.066406 108.265625 408.328125 113.597656 C 407.144531 114.785156 405.070312 117.75 404.476562 119.230469 C 408.917969 115.675781 417.210938 114.785156 422.246094 116.859375 Z M 427.871094 110.042969 "/>
<path style=" stroke:none;fill-rule:nonzero;fill:rgb(49.019608%,49.803922%,40.784314%);fill-opacity:1;" d="M 147.753906 131.976562 C 147.164062 128.417969 143.609375 125.457031 141.832031 124.566406 C 138.871094 123.085938 133.246094 122.789062 129.398438 123.675781 C 129.988281 126.046875 130.878906 129.011719 131.175781 130.199219 C 132.65625 130.496094 135.320312 130.789062 136.800781 131.382812 C 138.578125 132.273438 141.539062 134.050781 142.128906 137.90625 C 143.019531 142.648438 142.722656 147.390625 140.648438 150.945312 C 146.273438 145.609375 148.941406 139.683594 147.753906 131.976562 "/>
<path style=" stroke:none;fill-rule:nonzero;fill:rgb(23.529412%,35.294118%,65.098039%);fill-opacity:1;" d="M 157.375 131.722656 C 154.710938 117.496094 136.058594 109.492188 117.402344 119.570312 L 122.140625 135.871094 L 129.542969 160.175781 L 133.097656 171.144531 C 147.011719 162.546875 160.929688 151.582031 157.375 131.722656 Z M 139.019531 153.953125 C 136.945312 147.429688 132.503906 133.203125 132.503906 133.203125 C 132.503906 133.203125 131.613281 130.238281 130.429688 126.683594 C 134.28125 126.089844 138.128906 126.386719 141.089844 127.867188 C 142.867188 128.757812 145.828125 130.535156 146.421875 134.390625 C 148.195312 142.09375 145.53125 148.023438 139.019531 153.953125 Z M 139.019531 153.953125 "/>
<path style=" stroke:none;fill-rule:nonzero;fill:rgb(20.784314%,40.392157%,69.019608%);fill-opacity:1;" d="M 437.492188 109.195312 C 427.125 99.710938 411.136719 100.304688 401.660156 110.675781 C 392.1875 121.050781 392.777344 137.058594 403.140625 146.542969 C 404.03125 147.429688 404.917969 148.023438 405.808594 148.617188 L 439.265625 110.675781 C 438.675781 110.378906 438.082031 109.789062 437.492188 109.195312 Z M 406.105469 135.871094 C 402.847656 129.941406 403.4375 122.238281 408.472656 116.902344 C 413.210938 111.863281 420.316406 110.378906 426.535156 112.75 Z M 406.105469 135.871094 "/>
<path style=" stroke:none;fill-rule:nonzero;fill:rgb(11.764706%,17.647059%,37.254902%);fill-opacity:1;" d="M 482.058594 105.003906 L 463.699219 122.789062 L 481.167969 138.496094 Z M 482.058594 105.003906 "/>
<path style=" stroke:none;fill-rule:nonzero;fill:rgb(20.392157%,40%,68.627451%);fill-opacity:1;" d="M 653.5 143.238281 C 653.796875 144.425781 653.796875 145.609375 653.796875 146.796875 C 653.5 153.910156 646.988281 159.246094 638.992188 158.949219 C 630.996094 158.652344 624.777344 152.722656 625.074219 145.609375 C 625.371094 139.089844 631.292969 133.753906 638.398438 133.457031 C 636.917969 133.160156 635.4375 132.867188 633.957031 132.867188 C 620.632812 132.273438 609.972656 141.757812 609.382812 153.316406 C 608.789062 165.765625 618.855469 176.140625 631.886719 176.4375 C 645.210938 177.027344 655.871094 167.542969 656.460938 155.09375 C 657.351562 150.945312 655.871094 146.796875 653.5 143.238281 "/>
<path style=" stroke:none;fill-rule:nonzero;fill:url(#linear7);" d="M 251.984375 157.46875 C 251.984375 164.582031 245.46875 170.210938 237.769531 170.210938 C 229.777344 170.210938 223.558594 164.582031 223.558594 157.46875 C 223.558594 150.945312 229.183594 145.3125 236.585938 144.722656 C 235.105469 144.425781 233.625 144.425781 232.144531 144.425781 C 218.820312 144.425781 208.457031 154.207031 208.457031 166.0625 C 208.457031 178.511719 218.820312 188.292969 231.847656 188.292969 C 245.175781 188.292969 255.539062 178.511719 255.539062 166.0625 C 255.539062 161.617188 254.058594 157.761719 251.6875 154.207031 C 251.6875 155.09375 251.984375 156.28125 251.984375 157.46875 "/>
<path style=" stroke:none;fill-rule:nonzero;fill:url(#linear8);" d="M 735.964844 85.78125 L 730.042969 110.085938 L 724.710938 83.113281 L 651.871094 67.105469 L 652.460938 107.714844 L 663.417969 110.085938 L 662.53125 117.496094 C 662.53125 117.496094 662.234375 117.496094 662.234375 117.199219 C 648.613281 110.085938 631.734375 109.195312 616.042969 115.417969 C 610.710938 117.496094 605.675781 120.160156 601.234375 123.421875 L 590.28125 54.0625 L 542.015625 54.0625 L 540.832031 62.066406 L 489.902344 62.066406 L 483.980469 97.636719 L 479.832031 92.300781 C 467.398438 77.183594 449.628906 68.882812 429.792969 68.292969 L 473.023438 45.171875 L 442.820312 0.121094 L 388.335938 62.957031 L 397.8125 74.515625 C 389.226562 78.074219 381.824219 82.816406 375.605469 88.742188 L 328.820312 47.246094 L 312.535156 78.371094 L 313.125 48.136719 L 239.988281 71.550781 L 242.0625 110.675781 L 254.5 107.417969 L 256.273438 127.277344 C 242.0625 120.753906 224.886719 121.050781 209.195312 127.867188 C 204.457031 129.941406 200.015625 132.3125 196.164062 135.277344 C 198.832031 123.125 198.238281 111.269531 193.5 100.597656 C 188.171875 88.152344 178.398438 77.480469 166.851562 70.960938 C 158.5625 65.328125 148.789062 62.066406 138.425781 60.882812 C 113.257812 56.4375 82.757812 60.882812 52.851562 73.625 C 41.894531 78.371094 31.53125 83.703125 22.351562 89.632812 L 10.804688 97.042969 L 17.910156 108.898438 L 39.824219 146.246094 L 46.632812 157.507812 L 58.476562 151.582031 L 60.253906 150.691406 L 114.738281 272.214844 L 120.066406 283.773438 L 132.207031 279.921875 L 161.523438 270.4375 L 174.550781 266.289062 L 171.292969 253.246094 L 155.601562 193.371094 C 160.042969 190.113281 164.1875 186.554688 168.035156 182.703125 C 167.148438 189.816406 167.738281 197.226562 169.515625 204.042969 C 173.660156 218.566406 183.136719 230.125 196.460938 236.351562 C 210.675781 243.167969 228.144531 243.167969 244.132812 236.351562 C 252.128906 232.792969 259.53125 228.050781 265.453125 221.828125 L 267.527344 245.835938 L 319.050781 238.128906 L 319.050781 191.890625 L 426.535156 245.242188 L 426.535156 193.964844 C 430.976562 193.667969 435.121094 192.78125 439.5625 191.890625 C 451.40625 188.925781 461.476562 185.074219 470.652344 179.738281 L 466.210938 207.304688 L 524.25 216.492188 L 527.507812 195.449219 L 542.609375 223.605469 L 551.785156 205.820312 L 555.042969 235.164062 L 620.777344 246.726562 L 617.226562 224.496094 C 626.109375 225.382812 635.585938 224.199219 644.761719 220.9375 C 646.835938 220.050781 649.203125 219.160156 650.980469 217.972656 L 648.316406 241.6875 L 692.140625 247.910156 L 692.4375 265.992188 L 738.035156 280.21875 L 797.554688 100.894531 Z M 478.945312 112.457031 L 481.90625 109.195312 L 478.351562 131.722656 L 468.878906 123.125 Z M 440.453125 19.976562 L 456.441406 41.617188 L 410.839844 64.140625 L 407.585938 59.398438 C 407.585938 59.695312 440.453125 19.976562 440.453125 19.976562 Z M 138.722656 187.148438 L 156.785156 257.097656 L 127.46875 266.582031 L 67.066406 131.425781 C 63.808594 133.203125 57.589844 136.167969 52.257812 138.835938 L 30.347656 101.785156 C 38.933594 96.152344 48.707031 91.410156 58.773438 86.964844 C 87.199219 74.8125 114.441406 71.253906 136.058594 75.109375 C 143.753906 76 151.75 78.371094 158.855469 83.113281 C 168.628906 88.742188 176.03125 96.449219 180.472656 106.527344 C 191.132812 130.832031 173.660156 165.808594 138.722656 187.148438 Z M 274.042969 174.699219 C 273.746094 185.074219 269.894531 195.449219 263.382812 204.339844 C 257.164062 212.933594 248.871094 219.753906 238.804688 224.199219 C 213.339844 235.164062 187.875 224.199219 181.066406 199.894531 C 174.550781 176.476562 189.949219 148.617188 214.523438 137.945312 C 230.21875 131.128906 246.207031 132.90625 257.460938 140.613281 C 264.566406 145.355469 269.894531 152.46875 272.265625 161.363281 C 272.5625 162.25 272.855469 163.4375 272.855469 164.324219 C 274.042969 167.882812 274.042969 171.4375 274.042969 174.699219 Z M 412.914062 224.199219 L 306.019531 170.847656 L 306.316406 226.867188 L 278.777344 230.71875 L 276.707031 207.601562 C 285.292969 193.078125 288.253906 175.589844 283.8125 159.878906 C 281.445312 151.285156 277.003906 143.578125 270.785156 137.648438 L 266.933594 90.523438 L 254.5 93.78125 L 253.90625 81.925781 L 298.320312 68.589844 L 300.988281 114.234375 L 333.558594 68.292969 L 365.832031 98.820312 L 321.121094 145.949219 L 363.167969 162.546875 C 367.90625 171.4375 375.011719 178.847656 383.894531 184.480469 C 392.484375 189.816406 402.550781 193.078125 412.914062 193.964844 Z M 357.542969 146.542969 L 342.738281 140.910156 L 356.652344 127.570312 C 355.765625 133.796875 356.0625 140.019531 357.542969 146.542969 Z M 473.613281 160.769531 C 463.25 169.363281 451.703125 174.699219 436.304688 178.554688 C 433.050781 179.441406 429.496094 180.035156 426.535156 180.035156 C 401.957031 182.40625 381.527344 171.144531 373.828125 153.0625 C 372.941406 150.988281 372.050781 148.617188 371.460938 146.246094 C 367.90625 130.832031 370.867188 117.199219 378.566406 106.230469 C 380.636719 102.96875 383.304688 100.304688 386.265625 97.636719 C 393.371094 91.113281 402.550781 86.667969 412.914062 84 C 436.304688 78.371094 456.738281 85.484375 469.46875 100.894531 L 425.054688 148.320312 C 428.015625 148.914062 432.753906 148.023438 436.304688 147.132812 C 446.964844 144.464844 452.886719 138.835938 457.921875 132.90625 L 475.6875 148.914062 L 481.019531 153.65625 C 478.648438 156.324219 476.28125 158.695312 473.613281 160.769531 Z M 568.074219 223.902344 L 558.300781 159.878906 L 544.679688 195.152344 L 524.25 150.988281 L 523.953125 150.988281 L 515.957031 202.265625 L 481.90625 196.335938 L 486.644531 167.882812 C 487.828125 166.695312 489.308594 165.511719 490.492188 164.027344 L 501.449219 152.765625 L 490.789062 142.984375 L 502.335938 74.8125 L 536.683594 74.8125 L 545.273438 121.941406 L 555.042969 67.402344 L 579.621094 67.402344 L 589.984375 133.796875 C 576.957031 148.617188 570.738281 168.476562 574.882812 186.851562 C 578.140625 201.078125 587.023438 212.34375 599.460938 219.160156 C 600.644531 219.753906 602.125 220.34375 603.308594 220.9375 L 604.492188 229.535156 Z M 653.054688 202.859375 C 649.203125 205.523438 645.058594 207.894531 640.617188 209.378906 C 631.734375 212.640625 623.148438 213.527344 615.152344 211.75 C 609.824219 210.5625 604.789062 208.488281 600.347656 205.523438 C 593.539062 200.488281 588.503906 193.371094 586.132812 184.183594 C 583.46875 173.21875 585.839844 161.363281 591.761719 150.988281 C 594.722656 145.949219 598.570312 141.207031 603.011719 137.058594 C 608.046875 132.609375 613.96875 128.757812 620.1875 126.386719 C 635.289062 120.753906 650.09375 122.828125 660.457031 130.238281 C 664.304688 132.90625 667.5625 136.464844 669.933594 140.613281 C 671.707031 143.875 673.1875 147.429688 674.078125 151.285156 C 677.335938 164.621094 673.484375 178.847656 665.195312 190.113281 C 662.53125 195.152344 658.089844 199.300781 653.054688 202.859375 Z M 730.042969 263.324219 L 704.871094 255.914062 L 702.800781 162.84375 L 690.066406 234.574219 L 662.53125 230.125 L 664.601562 209.378906 C 682.664062 194.261719 692.140625 170.253906 686.808594 148.320312 C 684.441406 138.835938 679.703125 130.238281 672.597656 124.015625 L 674.964844 99.710938 L 664.601562 97.042969 L 664.898438 84 L 712.273438 93.484375 L 728.265625 169.066406 L 744.550781 101.191406 L 780.675781 109.195312 Z M 730.042969 263.324219 "/>
<path style=" stroke:none;fill-rule:nonzero;fill:rgb(0%,0%,0%);fill-opacity:1;" d="M 763.949219 252.90625 L 765.132812 252.90625 C 766.613281 252.90625 767.796875 252.316406 767.796875 250.832031 C 767.796875 249.945312 766.910156 248.757812 765.132812 248.757812 L 763.949219 248.757812 Z M 763.949219 259.132812 L 762.171875 259.132812 L 762.171875 247.867188 C 763.058594 247.574219 763.949219 247.574219 765.429688 247.574219 C 767.207031 247.574219 768.390625 247.867188 768.980469 248.460938 C 769.574219 249.054688 770.167969 249.648438 770.167969 250.832031 C 770.167969 252.316406 769.277344 253.203125 768.09375 253.5 C 768.980469 253.796875 769.871094 254.6875 769.871094 256.167969 C 770.167969 257.945312 770.460938 258.539062 770.460938 258.835938 L 768.6875 258.835938 C 768.390625 258.539062 768.09375 257.355469 767.796875 255.871094 C 767.5 254.390625 766.910156 253.796875 765.429688 253.796875 L 763.949219 253.796875 Z M 766.019531 244.609375 C 761.578125 244.609375 758.027344 248.460938 758.027344 253.203125 C 758.027344 257.945312 761.578125 261.800781 766.316406 261.800781 C 770.757812 261.800781 774.3125 257.945312 774.3125 253.203125 C 774.015625 248.460938 770.460938 244.609375 766.019531 244.609375 Z M 766.019531 243.125 C 771.648438 243.125 775.792969 247.574219 775.792969 253.203125 C 775.792969 258.835938 771.351562 263.28125 765.726562 263.28125 C 760.097656 263.28125 755.65625 258.835938 755.65625 253.203125 C 755.953125 247.574219 760.394531 243.125 766.019531 243.125 Z M 766.019531 243.125 "/>
</g>
</svg>
