<?xml version="1.0" encoding="UTF-8"?>
<svg xmlns="http://www.w3.org/2000/svg" xmlns:xlink="http://www.w3.org/1999/xlink" width="98px" height="130px" viewBox="0 0 98 129" version="1.1">
<g id="surface1">
<path style=" stroke:none;fill-rule:nonzero;fill:rgb(0%,0%,0%);fill-opacity:1;" d="M 0.679688 48.628906 C 0.679688 32.417969 0.679688 16.546875 0.679688 0.675781 C 33.347656 0.675781 66.015625 0.675781 98.679688 0.675781 C 98.679688 43.675781 98.679688 86.675781 98.679688 129.675781 C 66.015625 129.675781 33.347656 129.675781 0.679688 129.675781 C 0.679688 102.773438 0.679688 75.867188 0.679688 48.628906 M 71 85.808594 C 69.9375 86.5 68.878906 87.191406 67.292969 87.917969 C 66.183594 88.363281 65.074219 88.8125 63.523438 89.335938 C 62.761719 89.699219 61.996094 90.066406 60.695312 90.496094 C 49.34375 93.996094 38.011719 94.472656 26.535156 90.203125 C 27.082031 91.320312 27.734375 92.132812 28.578125 92.464844 C 34.191406 94.6875 39.839844 96.484375 46.042969 96.765625 C 51.574219 97.019531 56.84375 96.746094 62.480469 94.570312 C 63.910156 94.128906 65.335938 93.683594 67.226562 93.199219 C 68.207031 92.535156 69.183594 91.871094 70.628906 91.164062 C 71.371094 90.519531 72.113281 89.875 73.328125 89.175781 C 74.320312 88.503906 75.308594 87.835938 76.664062 86.890625 C 78.28125 85.296875 79.902344 83.707031 81.921875 81.800781 C 84.363281 76.976562 86.890625 72.195312 89.210938 67.3125 C 90.960938 63.621094 91 59.800781 89.664062 55.683594 C 91.28125 50.515625 91.007812 45.511719 88.449219 40.175781 C 87.753906 38.226562 87.375 36.082031 86.308594 34.359375 C 81.890625 27.207031 77.199219 20.257812 67.808594 18.265625 C 67.808594 18.265625 67.535156 18.265625 67.40625 17.777344 C 63.488281 13.628906 58.195312 13.183594 52.320312 12.25 C 48.621094 12.386719 44.839844 12.085938 41.234375 12.746094 C 32.328125 14.375 24.207031 17.882812 17.917969 24.609375 C 15.792969 26.882812 14.179688 29.628906 11.902344 32.429688 C 8.414062 36.679688 7.019531 41.535156 7.226562 47.371094 C 3.898438 54.507812 5.515625 61.546875 8.054688 68.378906 C 9.441406 72.109375 11.746094 75.503906 13.578125 79.039062 C 13.578125 79.039062 13.589844 78.980469 13.636719 79.246094 C 13.703125 79.425781 13.828125 79.542969 14.304688 80.007812 C 16.941406 84.765625 21.730469 86.699219 26.476562 87.625 C 31.707031 88.648438 37.246094 88.699219 42.601562 88.375 C 50.574219 87.890625 58.152344 85.328125 65.078125 81.492188 C 71.429688 77.976562 77.503906 73.886719 82.335938 68.785156 C 82.101562 71.730469 81.867188 74.679688 81.253906 77.875 C 79.117188 80.035156 76.976562 82.195312 74.363281 84.414062 C 73.390625 84.84375 72.414062 85.269531 71 85.808594 M 68.65625 111.078125 C 68.390625 113.359375 68.125 115.640625 67.882812 117.714844 C 71.300781 117.714844 74.351562 117.714844 77.582031 117.714844 C 77.289062 115.148438 76.976562 112.429688 76.523438 108.464844 C 74.921875 110.203125 73.882812 111.328125 72.863281 112.433594 C 71.207031 108.925781 70.742188 108.710938 68.65625 111.078125 M 54.554688 111.335938 C 54.304688 112.058594 53.867188 112.773438 53.832031 113.503906 C 53.726562 115.808594 54.578125 117.910156 57.042969 118.082031 C 58.597656 118.191406 61.46875 117.246094 61.59375 116.4375 C 61.898438 114.507812 61.464844 112 60.339844 110.425781 C 58.792969 108.261719 56.589844 109.457031 54.554688 111.335938 M 43.664062 115.910156 C 44.695312 116.816406 45.726562 117.722656 46.757812 118.628906 C 47.011719 118.375 47.265625 118.125 47.519531 117.871094 C 47.519531 115.109375 47.519531 112.34375 47.519531 108.386719 C 45.976562 109.847656 45.101562 110.675781 44.378906 111.359375 C 43.386719 110.738281 42.097656 109.933594 40.492188 108.929688 C 39.59375 117.15625 39.773438 117.859375 42.519531 117.996094 C 42.839844 117.148438 43.160156 116.304688 43.664062 115.910156 M 23.9375 111.996094 C 23.683594 111.15625 23.667969 109.8125 23.132812 109.5625 C 20.949219 108.546875 17.457031 110.699219 17.035156 113.097656 C 16.316406 117.160156 19.140625 118.949219 24.347656 117.714844 C 24.757812 115.039062 25.171875 112.359375 21.09375 112.089844 C 21.863281 112.089844 22.636719 112.089844 23.9375 111.996094 M 31.285156 109.828125 C 29.546875 115.179688 30.476562 118.175781 34.03125 117.796875 C 34.03125 115.734375 34.234375 113.613281 33.925781 111.566406 C 33.808594 110.78125 32.515625 110.171875 31.285156 109.828125 M 80.972656 109.757812 C 79.796875 110.078125 78.621094 110.398438 77.441406 110.71875 C 77.472656 111.191406 77.5 111.664062 77.527344 112.136719 C 79.046875 112.390625 80.566406 112.644531 83.035156 113.058594 C 82.148438 111.503906 81.753906 110.808594 80.972656 109.757812 Z M 80.972656 109.757812 "/>
<path style=" stroke:none;fill-rule:nonzero;fill:rgb(81.960784%,67.058824%,40.784314%);fill-opacity:1;" d="M 82.265625 68.234375 C 77.503906 73.886719 71.429688 77.976562 65.078125 81.492188 C 58.152344 85.328125 50.574219 87.890625 42.601562 88.375 C 37.246094 88.699219 31.707031 88.648438 26.476562 87.625 C 21.730469 86.699219 16.941406 84.765625 14.132812 79.675781 C 13.910156 79.148438 13.785156 79.027344 13.589844 78.980469 C 13.589844 78.980469 13.578125 79.039062 13.648438 78.769531 C 13.382812 77.328125 12.8125 76.167969 12.757812 74.980469 C 12.644531 72.664062 12.816406 70.328125 13.089844 68.128906 C 19.464844 72.578125 26.445312 74.242188 33.785156 73.519531 C 40.6875 72.839844 47.453125 71.160156 53.691406 67.921875 C 55.972656 66.738281 58.210938 65.464844 60.597656 64.015625 C 62.925781 62.960938 65.132812 62.128906 67.640625 61.355469 C 73.25 61.316406 78.242188 62.113281 82.054688 66.585938 C 82.160156 67.292969 82.210938 67.765625 82.265625 68.234375 Z M 82.265625 68.234375 "/>
<path style=" stroke:none;fill-rule:nonzero;fill:rgb(1.176471%,47.058824%,75.294118%);fill-opacity:1;" d="M 12.871094 68.003906 C 12.816406 70.328125 12.644531 72.664062 12.757812 74.980469 C 12.8125 76.167969 13.382812 77.328125 13.679688 78.777344 C 11.746094 75.503906 9.441406 72.109375 8.054688 68.378906 C 5.515625 61.546875 3.898438 54.507812 7.523438 47.175781 C 7.816406 46.980469 8.019531 47.027344 8.132812 47.277344 C 9.394531 51.898438 10.597656 56.230469 15.910156 57.671875 C 15.984375 58.398438 16.054688 58.878906 15.957031 59.527344 C 14.816406 62.460938 13.84375 65.230469 12.871094 68.003906 Z M 12.871094 68.003906 "/>
<path style=" stroke:none;fill-rule:nonzero;fill:rgb(0.784314%,47.058824%,75.686275%);fill-opacity:1;" d="M 68.066406 18.355469 C 77.199219 20.257812 81.890625 27.207031 86.308594 34.359375 C 87.375 36.082031 87.753906 38.226562 88.1875 40.355469 C 85.625 38.789062 83.324219 37.042969 80.777344 35.21875 C 77.773438 34.230469 75.019531 33.316406 72.1875 32.242188 C 71.875 31.808594 71.632812 31.542969 71.453125 31.003906 C 71.101562 27.824219 70.855469 24.882812 70.203125 22.027344 C 69.898438 20.710938 68.804688 19.574219 68.066406 18.355469 Z M 68.066406 18.355469 "/>
<path style=" stroke:none;fill-rule:nonzero;fill:rgb(80.392157%,67.058824%,41.568627%);fill-opacity:1;" d="M 81.027344 35.292969 C 83.324219 37.042969 85.625 38.789062 88.144531 40.625 C 91.007812 45.511719 91.28125 50.515625 89.292969 55.792969 C 88.800781 55.894531 88.679688 55.886719 88.480469 55.664062 C 86.429688 51.390625 83.175781 48.796875 78.882812 47.144531 C 78.621094 46.824219 78.425781 46.675781 78.335938 46.296875 C 79.300781 42.476562 80.164062 38.882812 81.027344 35.292969 Z M 81.027344 35.292969 "/>
<path style=" stroke:none;fill-rule:nonzero;fill:rgb(0.392157%,36.470588%,58.823529%);fill-opacity:1;" d="M 12.332031 32.15625 C 14.179688 29.628906 15.792969 26.882812 17.917969 24.609375 C 24.207031 17.882812 32.328125 14.375 41.234375 12.746094 C 44.839844 12.085938 48.621094 12.386719 52.507812 12.558594 C 52.566406 13.316406 52.445312 13.769531 52.023438 14.203125 C 36.355469 15.148438 23.386719 20.871094 13.574219 32.9375 C 13.070312 32.566406 12.703125 32.363281 12.332031 32.15625 Z M 12.332031 32.15625 "/>
<path style=" stroke:none;fill-rule:nonzero;fill:rgb(1.568627%,43.921569%,69.803922%);fill-opacity:1;" d="M 67.9375 18.308594 C 68.804688 19.574219 69.898438 20.710938 70.203125 22.027344 C 70.855469 24.882812 71.101562 27.824219 71.140625 31.011719 C 67.113281 31.21875 63.464844 31.144531 59.847656 30.8125 C 61.523438 26.332031 63.0625 22.105469 60.8125 17.640625 C 63.234375 17.824219 65.382812 18.042969 67.535156 18.265625 C 67.535156 18.265625 67.808594 18.265625 67.9375 18.308594 Z M 67.9375 18.308594 "/>
<path style=" stroke:none;fill-rule:nonzero;fill:rgb(0%,40%,64.313725%);fill-opacity:1;" d="M 61.960938 94.621094 C 56.84375 96.746094 51.574219 97.019531 46.042969 96.765625 C 39.839844 96.484375 34.191406 94.6875 28.578125 92.464844 C 27.734375 92.132812 27.082031 91.320312 26.535156 90.203125 C 38.011719 94.472656 49.34375 93.996094 60.972656 90.730469 C 61.488281 92.183594 61.722656 93.402344 61.960938 94.621094 Z M 61.960938 94.621094 "/>
<path style=" stroke:none;fill-rule:nonzero;fill:rgb(0%,41.176471%,63.921569%);fill-opacity:1;" d="M 88.558594 55.875 C 88.679688 55.886719 88.800781 55.894531 89.097656 55.964844 C 91 59.800781 90.960938 63.621094 89.210938 67.3125 C 86.890625 72.195312 84.363281 76.976562 81.71875 81.632812 C 81.550781 80.1875 81.59375 78.90625 81.632812 77.628906 C 81.867188 74.679688 82.101562 71.730469 82.300781 68.507812 C 82.210938 67.765625 82.160156 67.292969 82.273438 66.457031 C 84.480469 62.683594 86.519531 59.28125 88.558594 55.875 Z M 88.558594 55.875 "/>
<path style=" stroke:none;fill-rule:nonzero;fill:rgb(57.647059%,58.431373%,59.607843%);fill-opacity:1;" d="M 68.691406 110.792969 C 70.742188 108.710938 71.207031 108.925781 72.863281 112.433594 C 73.882812 111.328125 74.921875 110.203125 76.523438 108.464844 C 76.976562 112.429688 77.289062 115.148438 77.582031 117.714844 C 74.351562 117.714844 71.300781 117.714844 67.882812 117.714844 C 68.125 115.640625 68.390625 113.359375 68.691406 110.792969 Z M 68.691406 110.792969 "/>
<path style=" stroke:none;fill-rule:nonzero;fill:rgb(57.254902%,57.647059%,59.607843%);fill-opacity:1;" d="M 54.691406 111.105469 C 56.589844 109.457031 58.792969 108.261719 60.339844 110.425781 C 61.464844 112 61.898438 114.507812 61.59375 116.4375 C 61.46875 117.246094 58.597656 118.191406 57.042969 118.082031 C 54.578125 117.910156 53.726562 115.808594 53.832031 113.503906 C 53.867188 112.773438 54.304688 112.058594 54.691406 111.105469 Z M 54.691406 111.105469 "/>
<path style=" stroke:none;fill-rule:nonzero;fill:rgb(57.254902%,58.039216%,59.215686%);fill-opacity:1;" d="M 43.574219 115.683594 C 43.160156 116.304688 42.839844 117.148438 42.515625 117.996094 C 39.773438 117.859375 39.59375 117.15625 40.492188 108.929688 C 42.097656 109.933594 43.386719 110.738281 44.378906 111.359375 C 45.101562 110.675781 45.976562 109.847656 47.519531 108.386719 C 47.519531 112.34375 47.519531 115.109375 47.519531 117.871094 C 47.265625 118.125 47.011719 118.375 46.757812 118.628906 C 45.726562 117.722656 44.695312 116.816406 43.574219 115.683594 Z M 43.574219 115.683594 "/>
<path style=" stroke:none;fill-rule:nonzero;fill:rgb(58.039216%,58.431373%,59.607843%);fill-opacity:1;" d="M 23.671875 112.042969 C 22.636719 112.089844 21.863281 112.089844 21.09375 112.089844 C 25.171875 112.359375 24.757812 115.039062 24.347656 117.71875 C 19.140625 118.949219 16.316406 117.160156 17.035156 113.097656 C 17.457031 110.699219 20.949219 108.546875 23.132812 109.5625 C 23.667969 109.8125 23.683594 111.15625 23.671875 112.042969 Z M 23.671875 112.042969 "/>
<path style=" stroke:none;fill-rule:nonzero;fill:rgb(81.176471%,67.45098%,41.568627%);fill-opacity:1;" d="M 67.46875 18.019531 C 65.382812 18.042969 63.234375 17.824219 60.589844 17.558594 C 59.34375 17.273438 58.589844 17.03125 57.726562 16.578125 C 55.851562 15.648438 54.085938 14.933594 52.320312 14.21875 C 52.445312 13.769531 52.566406 13.316406 52.839844 12.691406 C 58.195312 13.183594 63.488281 13.628906 67.46875 18.019531 Z M 67.46875 18.019531 "/>
<path style=" stroke:none;fill-rule:nonzero;fill:rgb(80.392157%,67.058824%,41.176471%);fill-opacity:1;" d="M 12.117188 32.292969 C 12.703125 32.363281 13.070312 32.566406 13.523438 33.1875 C 13.191406 35.007812 12.78125 36.414062 12.324219 38.066406 C 12.214844 38.980469 12.15625 39.652344 11.914062 40.46875 C 10.496094 42.75 9.257812 44.890625 8.019531 47.027344 C 8.019531 47.027344 7.816406 46.980469 7.710938 46.976562 C 7.019531 41.535156 8.414062 36.679688 12.117188 32.292969 Z M 12.117188 32.292969 "/>
<path style=" stroke:none;fill-rule:nonzero;fill:rgb(0%,25.098039%,43.529412%);fill-opacity:1;" d="M 81.441406 77.75 C 81.59375 78.90625 81.550781 80.1875 81.515625 81.792969 C 79.902344 83.707031 78.28125 85.296875 76.289062 86.890625 C 75.554688 86.046875 75.199219 85.203125 74.839844 84.359375 C 76.976562 82.195312 79.117188 80.035156 81.441406 77.75 Z M 81.441406 77.75 "/>
<path style=" stroke:none;fill-rule:nonzero;fill:rgb(56.470588%,56.862745%,57.647059%);fill-opacity:1;" d="M 31.523438 109.65625 C 32.515625 110.171875 33.808594 110.78125 33.925781 111.566406 C 34.234375 113.613281 34.03125 115.734375 34.03125 117.796875 C 30.476562 118.175781 29.546875 115.179688 31.523438 109.65625 Z M 31.523438 109.65625 "/>
<path style=" stroke:none;fill-rule:nonzero;fill:rgb(0%,34.901961%,56.078431%);fill-opacity:1;" d="M 63.964844 89.257812 C 65.074219 88.8125 66.183594 88.363281 67.667969 88.136719 C 68.75 89.308594 69.457031 90.257812 70.164062 91.207031 C 69.183594 91.871094 68.207031 92.535156 66.800781 93.097656 C 65.570312 91.75 64.765625 90.503906 63.964844 89.257812 Z M 63.964844 89.257812 "/>
<path style=" stroke:none;fill-rule:nonzero;fill:rgb(0%,30.196078%,50.980392%);fill-opacity:1;" d="M 70.394531 91.1875 C 69.457031 90.257812 68.75 89.308594 67.929688 88.121094 C 68.878906 87.191406 69.9375 86.5 71.273438 85.988281 C 71.984375 87.183594 72.417969 88.207031 72.855469 89.230469 C 72.113281 89.875 71.371094 90.519531 70.394531 91.1875 Z M 70.394531 91.1875 "/>
<path style=" stroke:none;fill-rule:nonzero;fill:rgb(0%,37.647059%,60.784314%);fill-opacity:1;" d="M 63.746094 89.296875 C 64.765625 90.503906 65.570312 91.75 66.570312 93.117188 C 65.335938 93.683594 63.910156 94.128906 62.222656 94.597656 C 61.722656 93.402344 61.488281 92.183594 61.242188 90.699219 C 61.996094 90.066406 62.761719 89.699219 63.746094 89.296875 Z M 63.746094 89.296875 "/>
<path style=" stroke:none;fill-rule:nonzero;fill:rgb(0%,27.45098%,47.058824%);fill-opacity:1;" d="M 73.089844 89.203125 C 72.417969 88.207031 71.984375 87.183594 71.496094 85.929688 C 72.414062 85.269531 73.390625 84.84375 74.601562 84.386719 C 75.199219 85.203125 75.554688 86.046875 76.105469 87.027344 C 75.308594 87.835938 74.320312 88.503906 73.089844 89.203125 Z M 73.089844 89.203125 "/>
<path style=" stroke:none;fill-rule:nonzero;fill:rgb(57.647059%,58.039216%,59.215686%);fill-opacity:1;" d="M 81.164062 109.9375 C 81.753906 110.808594 82.148438 111.503906 83.035156 113.058594 C 80.566406 112.644531 79.046875 112.390625 77.527344 112.136719 C 77.5 111.664062 77.472656 111.191406 77.441406 110.71875 C 78.621094 110.398438 79.796875 110.078125 81.164062 109.9375 Z M 81.164062 109.9375 "/>
<path style=" stroke:none;fill-rule:nonzero;fill:rgb(1.176471%,47.058824%,75.294118%);fill-opacity:1;" d="M 13.613281 79.113281 C 13.785156 79.027344 13.910156 79.148438 13.988281 79.46875 C 13.828125 79.542969 13.703125 79.425781 13.613281 79.113281 Z M 13.613281 79.113281 "/>
<path style=" stroke:none;fill-rule:nonzero;fill:rgb(0%,46.666667%,75.686275%);fill-opacity:1;" d="M 78.234375 46.527344 C 78.425781 46.675781 78.621094 46.824219 78.777344 47.347656 C 74.9375 52.246094 71.140625 56.773438 67.339844 61.296875 C 65.132812 62.128906 62.925781 62.960938 60.335938 63.992188 C 57.589844 65.042969 55.039062 65.566406 52.90625 66.804688 C 46.957031 70.253906 40.644531 67.691406 38.746094 60.574219 C 38.910156 60.078125 39.011719 59.792969 39.363281 59.480469 C 48.683594 56.945312 56.882812 52.945312 63.515625 45.765625 C 64.488281 45.457031 65.257812 45.277344 66.335938 45.15625 C 70.507812 45.652344 74.371094 46.089844 78.234375 46.527344 Z M 78.234375 46.527344 "/>
<path style=" stroke:none;fill-rule:nonzero;fill:rgb(0%,0%,0%);fill-opacity:1;" d="M 38.679688 60.789062 C 40.644531 67.691406 46.957031 70.253906 52.90625 66.804688 C 55.039062 65.566406 57.589844 65.042969 60.210938 64.210938 C 58.210938 65.464844 55.972656 66.738281 53.691406 67.921875 C 47.453125 71.160156 40.6875 72.839844 33.785156 73.519531 C 26.445312 74.242188 19.464844 72.578125 13.089844 68.128906 C 13.84375 65.230469 14.816406 62.460938 16.234375 59.5625 C 18.871094 60.109375 21.050781 61.3125 23.253906 61.355469 C 28.390625 61.464844 33.535156 61.015625 38.679688 60.789062 Z M 38.679688 60.789062 "/>
<path style=" stroke:none;fill-rule:nonzero;fill:rgb(1.568627%,36.862745%,58.823529%);fill-opacity:1;" d="M 67.640625 61.355469 C 71.140625 56.773438 74.9375 52.246094 78.84375 47.515625 C 83.175781 48.796875 86.429688 51.390625 88.480469 55.664062 C 86.519531 59.28125 84.480469 62.683594 82.222656 66.21875 C 78.242188 62.113281 73.25 61.316406 67.640625 61.355469 Z M 67.640625 61.355469 "/>
<path style=" stroke:none;fill-rule:nonzero;fill:rgb(81.176471%,66.666667%,40.784314%);fill-opacity:1;" d="M 38.746094 60.574219 C 33.535156 61.015625 28.390625 61.464844 23.253906 61.355469 C 21.050781 61.3125 18.871094 60.109375 16.40625 59.398438 C 16.054688 58.878906 15.984375 58.398438 16.089844 57.5 C 18.769531 54.046875 21.265625 51.011719 23.988281 47.9375 C 24.765625 47.65625 25.316406 47.410156 26.160156 47.210938 C 34.457031 47.308594 41.644531 44.703125 48.097656 40.25 C 50.976562 38.265625 53.355469 35.566406 55.910156 33.179688 C 55.867188 33.171875 55.851562 33.265625 56.03125 33.429688 C 56.53125 33.238281 56.847656 32.882812 57.363281 32.4375 C 58.316406 31.921875 59.066406 31.496094 59.816406 31.070312 C 63.464844 31.144531 67.113281 31.21875 71.082031 31.285156 C 71.632812 31.542969 71.875 31.808594 72.136719 32.507812 C 71.84375 34.085938 71.730469 35.339844 71.171875 36.359375 C 69.550781 39.320312 67.753906 42.1875 66.027344 45.09375 C 65.257812 45.277344 64.488281 45.457031 63.222656 45.742188 C 56.316406 47.925781 49.820312 49.796875 43.527344 52.191406 C 40.511719 53.339844 38.921875 56.082031 39.113281 59.511719 C 39.011719 59.792969 38.910156 60.078125 38.746094 60.574219 Z M 38.746094 60.574219 "/>
<path style=" stroke:none;fill-rule:nonzero;fill:rgb(1.960784%,43.921569%,69.411765%);fill-opacity:1;" d="M 23.761719 47.972656 C 21.265625 51.011719 18.769531 54.046875 16.09375 57.253906 C 10.597656 56.230469 9.394531 51.898438 8.132812 47.277344 C 9.257812 44.890625 10.496094 42.75 11.984375 40.710938 C 14.199219 46.175781 18.738281 47.460938 23.761719 47.972656 Z M 23.761719 47.972656 "/>
<path style=" stroke:none;fill-rule:nonzero;fill:rgb(0%,0%,0%);fill-opacity:1;" d="M 66.335938 45.15625 C 67.753906 42.1875 69.550781 39.320312 71.171875 36.359375 C 71.730469 35.339844 71.84375 34.085938 72.214844 32.671875 C 75.019531 33.316406 77.773438 34.230469 80.777344 35.21875 C 80.164062 38.882812 79.300781 42.476562 78.335938 46.296875 C 74.371094 46.089844 70.507812 45.652344 66.335938 45.15625 Z M 66.335938 45.15625 "/>
<path style=" stroke:none;fill-rule:nonzero;fill:rgb(0%,0%,0%);fill-opacity:1;" d="M 12.367188 37.820312 C 12.78125 36.414062 13.191406 35.007812 13.65625 33.351562 C 23.386719 20.871094 36.355469 15.148438 52.023438 14.203125 C 54.085938 14.933594 55.851562 15.648438 57.417969 16.609375 C 51.703125 17.574219 45.90625 17.457031 40.734375 19.1875 C 31.101562 22.410156 22.179688 27.242188 15.320312 35.085938 C 14.445312 36.089844 13.355469 36.914062 12.367188 37.820312 Z M 12.367188 37.820312 "/>
<path style=" stroke:none;fill-rule:nonzero;fill:rgb(0%,36.078431%,58.823529%);fill-opacity:1;" d="M 12.324219 38.066406 C 13.355469 36.914062 14.445312 36.089844 15.320312 35.085938 C 22.179688 27.242188 31.101562 22.410156 40.734375 19.1875 C 45.90625 17.457031 51.703125 17.574219 57.527344 16.824219 C 58.589844 17.03125 59.34375 17.273438 60.320312 17.59375 C 63.0625 22.105469 61.523438 26.332031 59.847656 30.8125 C 59.066406 31.496094 58.316406 31.921875 57.144531 32.414062 C 56.429688 32.742188 56.140625 33.003906 55.851562 33.265625 C 55.851562 33.265625 55.867188 33.171875 55.621094 33.144531 C 49.144531 35.28125 42.730469 37.050781 36.742188 39.75 C 32.800781 41.527344 29.46875 44.644531 25.867188 47.164062 C 25.316406 47.410156 24.765625 47.65625 23.988281 47.9375 C 18.738281 47.460938 14.199219 46.175781 12.167969 40.5625 C 12.15625 39.652344 12.214844 38.980469 12.324219 38.066406 Z M 12.324219 38.066406 "/>
<path style=" stroke:none;fill-rule:nonzero;fill:rgb(2.745098%,37.254902%,58.823529%);fill-opacity:1;" d="M 39.363281 59.480469 C 38.921875 56.082031 40.511719 53.339844 43.527344 52.191406 C 49.820312 49.796875 56.316406 47.925781 63.019531 45.867188 C 56.882812 52.945312 48.683594 56.945312 39.363281 59.480469 Z M 39.363281 59.480469 "/>
<path style=" stroke:none;fill-rule:nonzero;fill:rgb(0%,0%,0%);fill-opacity:1;" d="M 26.160156 47.210938 C 29.46875 44.644531 32.800781 41.527344 36.742188 39.75 C 42.730469 37.050781 49.144531 35.28125 55.667969 33.15625 C 53.355469 35.566406 50.976562 38.265625 48.097656 40.25 C 41.644531 44.703125 34.457031 47.308594 26.160156 47.210938 Z M 26.160156 47.210938 "/>
<path style=" stroke:none;fill-rule:nonzero;fill:rgb(0%,0%,0%);fill-opacity:1;" d="M 56.03125 33.429688 C 56.140625 33.003906 56.429688 32.742188 56.941406 32.503906 C 56.847656 32.882812 56.53125 33.238281 56.03125 33.429688 Z M 56.03125 33.429688 "/>
</g>
</svg>
